<?xml version="1.0" standalone="no"?>
<!DOCTYPE svg PUBLIC "-//W3C//DTD SVG 20010904//EN"
 "http://www.w3.org/TR/2001/REC-SVG-20010904/DTD/svg10.dtd">
<svg version="1.0" xmlns="http://www.w3.org/2000/svg"
 width="342.000000pt" height="342.000000pt" viewBox="0 0 342.000000 342.000000"
 preserveAspectRatio="xMidYMid meet">
<metadata>
Created by potrace 1.11, written by Peter Selinger 2001-2013
</metadata>
<g transform="translate(0.000000,342.000000) scale(0.100000,-0.100000)"
fill="#000000" stroke="none">
<path d="M2026 3364 c-50 -61 -86 -157 -86 -230 0 -37 -4 -46 -27 -58 -43 -22
-84 -71 -92 -108 -7 -32 -9 -33 -66 -40 -142 -18 -211 -31 -307 -59 l-102 -29
-29 35 c-38 46 -76 65 -131 65 -41 0 -46 3 -69 43 -107 181 -386 258 -591 164
-61 -29 -146 -111 -186 -181 -17 -28 -41 -89 -55 -136 -33 -107 -51 -145 -94
-193 -58 -64 -106 -79 -174 -52 -9 4 -17 3 -17 -3 0 -17 59 -35 95 -29 53 9
117 59 148 116 16 28 43 97 62 154 65 201 159 300 315 333 86 18 145 18 222
-2 123 -31 230 -118 283 -230 20 -43 34 -114 22 -114 -1 0 -20 9 -42 20 -50
25 -78 25 -131 -1 -79 -38 -110 -125 -73 -203 l22 -47 -30 -27 c-45 -40 -126
-139 -167 -204 -20 -32 -38 -58 -40 -58 -2 0 -21 7 -42 16 -26 11 -58 15 -100
12 -88 -5 -122 -33 -199 -163 -10 -17 -13 -17 -55 2 -102 46 -205 147 -260
253 -24 45 -29 50 -30 29 0 -33 71 -141 131 -199 26 -25 73 -60 106 -79 32
-19 68 -40 79 -47 19 -11 22 -24 26 -116 8 -154 68 -304 176 -443 41 -51 154
-166 207 -209 27 -23 73 -64 100 -92 178 -178 438 -294 721 -322 l69 -7 8 -50
c4 -27 6 -169 3 -315 -6 -262 3 -450 24 -523 l11 -37 274 0 273 0 26 30 c33
40 40 95 33 270 -9 188 -62 527 -102 639 -21 61 -19 71 16 83 143 50 368 197
475 309 104 111 193 252 232 369 101 306 114 367 114 545 1 129 -14 224 -46
305 -8 19 -20 51 -27 70 -8 19 -35 68 -62 108 l-48 72 31 26 c68 58 123 171
135 280 8 68 -7 166 -31 203 l-17 25 -29 -37 c-33 -41 -73 -53 -142 -43 -37 6
-57 19 -130 87 -47 45 -90 79 -96 77 -5 -1 33 -42 86 -90 80 -73 102 -88 145
-97 53 -12 102 1 141 36 25 22 36 9 48 -60 22 -119 -44 -310 -127 -367 l-33
-23 -58 31 c-86 45 -128 49 -179 16 -25 -17 -48 -43 -59 -66 -9 -21 -20 -37
-23 -36 -3 2 -33 17 -66 34 -33 17 -82 39 -108 49 -47 18 -48 19 -42 51 7 40
-12 90 -49 123 -40 38 -121 41 -181 8 l-46 -26 -12 27 c-6 15 -12 63 -12 108
1 71 5 89 33 147 20 39 50 81 74 102 35 29 38 35 20 35 -13 0 -37 -20 -66 -56z
m-78 -347 c19 -53 15 -76 -13 -83 -14 -3 -31 -1 -39 5 -7 6 -22 8 -31 4 -13
-4 -16 -3 -11 5 4 7 2 12 -4 12 -6 0 1 18 17 40 24 34 36 43 63 49 4 0 11 -14
18 -32z m258 -29 c14 -13 27 -41 31 -61 5 -34 4 -37 -19 -37 -14 0 -31 7 -38
15 -7 8 -17 12 -22 9 -5 -3 -45 -1 -89 6 -60 10 -77 15 -69 25 5 6 7 14 4 17
-5 6 39 40 66 51 34 14 111 0 136 -25z m-945 -101 c33 -22 52 -67 29 -67 -6 0
-30 -9 -52 -20 -23 -11 -45 -20 -50 -20 -4 0 -7 22 -7 50 1 27 -4 57 -11 65
-21 25 51 19 91 -8z m804 6 c109 -18 216 -50 300 -88 86 -39 225 -126 225
-141 0 -26 -236 -74 -363 -74 -129 0 -313 35 -405 78 l-34 15 -76 -75 c-169
-165 -280 -239 -502 -336 -150 -65 -353 -103 -475 -87 -54 6 -82 27 -59 44 5
3 15 18 21 33 27 61 111 175 182 248 202 205 457 335 761 386 98 16 324 15
425 -3z m641 -48 c112 -46 214 -204 260 -403 20 -82 14 -382 -7 -447 l-14 -40
-6 75 -5 75 -2 -81 c-2 -92 -24 -225 -49 -297 -21 -58 -31 -62 -167 -55 -367
19 -640 308 -647 685 -1 44 6 109 15 148 l16 70 128 1 c123 1 211 14 344 51
l58 16 60 -63 c104 -108 178 -236 206 -355 20 -88 24 -99 28 -94 3 2 -1 31 -9
64 -41 191 -155 358 -337 497 l-78 59 16 31 c28 54 62 78 111 78 24 0 60 -7
79 -15z m-1603 -44 c28 -11 42 -38 28 -55 -5 -6 -27 -20 -48 -31 -21 -10 -46
-25 -55 -33 -9 -8 -22 -11 -29 -6 -7 4 -10 3 -6 -3 4 -6 -7 -22 -23 -36 l-30
-27 -14 28 c-7 15 -13 38 -11 52 5 45 34 100 57 110 30 12 101 12 131 1z m890
-200 c42 -10 79 -20 82 -23 3 -3 -2 -36 -11 -74 -19 -83 -15 -227 11 -324 37
-140 122 -274 231 -364 129 -106 293 -166 456 -166 48 0 88 -3 88 -6 0 -15
-83 -149 -134 -217 -137 -182 -377 -342 -636 -423 -250 -78 -551 -80 -794 -5
-119 37 -288 121 -333 167 -17 17 -20 17 47 -1 58 -16 300 -21 300 -7 0 4 -46
6 -101 4 -74 -3 -122 0 -178 13 -110 26 -131 37 -194 102 -72 75 -99 111 -149
201 -22 39 -41 72 -44 72 -7 0 36 -91 60 -127 43 -63 19 -51 -58 28 -170 175
-249 323 -277 518 -11 80 -11 97 5 153 23 84 49 123 101 153 58 35 160 36 202
3 9 -7 6 -23 -13 -66 -83 -186 -98 -414 -41 -607 22 -71 20 -43 -3 66 -26 123
-25 229 2 361 29 142 35 149 117 137 87 -12 224 4 376 46 73 20 254 105 360
170 l78 47 31 -17 c46 -26 142 -123 183 -184 20 -30 52 -91 71 -135 33 -76 35
-89 40 -214 5 -145 -1 -178 -51 -297 -31 -74 -90 -167 -126 -199 -11 -11 -21
-24 -21 -30 0 -13 52 44 89 99 101 148 140 288 126 455 -8 100 -31 176 -88
282 -39 75 -136 187 -202 236 l-30 22 50 42 c28 23 78 70 113 104 l63 62 62
-20 c34 -11 97 -28 140 -37z m145 -1651 c9 -37 8 -42 -11 -54 -66 -41 -397
-100 -456 -81 -18 5 -21 14 -21 55 l0 48 78 7 c137 11 226 25 287 44 96 31
111 28 123 -19z m55 -247 c3 -10 8 -35 12 -55 5 -35 4 -38 -32 -56 -103 -53
-297 -89 -426 -79 -43 4 -82 9 -88 12 -5 4 -9 32 -9 63 l0 57 99 1 c130 1 270
21 351 49 83 28 88 29 93 8z m30 -153 c15 -71 28 -253 20 -261 -13 -13 -151
-41 -187 -37 l-31 3 -12 120 c-7 66 -12 124 -10 128 2 8 178 73 203 76 6 0 14
-12 17 -29z m-233 -155 c6 -55 14 -108 16 -117 3 -10 -3 -21 -13 -26 -51 -27
-295 -43 -334 -21 -18 9 -20 19 -18 132 2 67 4 124 5 127 1 3 76 5 167 5 l165
1 12 -101z m240 -200 c0 -35 -30 -74 -66 -85 -32 -11 -39 -10 -63 7 -15 12
-26 30 -26 44 0 21 6 25 53 30 29 4 56 10 59 13 13 12 43 5 43 -9z m-270 -69
c-26 -79 -99 -99 -156 -42 -50 50 -45 63 24 71 31 4 73 10 92 15 46 9 55 0 40
-44z"/>
<path d="M2591 2314 c-31 -26 -39 -60 -25 -99 8 -19 55 -45 83 -45 30 0 70 41
77 77 5 27 1 37 -24 63 -38 37 -70 38 -111 4z"/>
<path d="M1048 2793 c7 -3 16 -2 19 1 4 3 -2 6 -13 5 -11 0 -14 -3 -6 -6z"/>
<path d="M1115 2760 c-3 -5 -1 -10 4 -10 6 0 11 5 11 10 0 6 -2 10 -4 10 -3 0
-8 -4 -11 -10z"/>
<path d="M930 2700 c0 -5 5 -10 11 -10 5 0 7 5 4 10 -3 6 -8 10 -11 10 -2 0
-4 -4 -4 -10z"/>
<path d="M873 1852 c-56 -43 -45 -130 19 -156 64 -27 123 7 135 77 5 31 1 40
-25 67 -36 35 -93 41 -129 12z"/>
<path d="M2085 1572 c-23 -11 -54 -34 -69 -53 -52 -61 -96 -179 -67 -179 5 0
30 9 55 21 68 30 231 69 287 69 27 0 49 5 49 10 0 22 -53 90 -91 115 -50 36
-111 42 -164 17z"/>
<path d="M1641 1336 c-38 -46 -201 -132 -296 -156 l-40 -10 46 5 c80 8 286
118 303 163 7 16 1 15 -13 -2z"/>
</g>
</svg>
