<svg xmlns="http://www.w3.org/2000/svg" xmlns:xlink="http://www.w3.org/1999/xlink" xmlns:lucid="lucid" width="1201.99" height="920.68"><g transform="translate(-44.87008006254235 -38.71484444444445)" lucid:page-tab-id="0_0"><path d="M0 0h1291.73v998.15H0z" fill="#e5e5e5" fill-opacity=".42"/><path d="M219 66.7c0-4.4 3.6-8 8-8h836.76c4.42 0 8 3.6 8 8v72.74c0 4.42-3.58 8-8 8H227c-4.4 0-8-3.58-8-8z" stroke="#000" stroke-opacity="0" stroke-width="2" fill="#fff" fill-opacity="0"/><use xlink:href="#a" transform="matrix(1,0,0,1,223.00984167423212,62.71484444444445) translate(271.348 53.18111111111111)"/><use xlink:href="#b" transform="matrix(1,0,0,1,223.00984167423212,62.71484444444445) translate(499.9795555555555 53.18111111111111)"/><path d="M475.3 122.3h347.9M475.33 122.3h-1.02M823.17 122.3h1.02" stroke="#a9afb8" stroke-width="2" fill="none"/><path d="M219 131.65c0-4.4 3.6-8 8-8h837.72c4.42 0 8 3.6 8 8v2.85c0 4.42-3.58 8-8 8h-837.7c-4.43 0-8-3.58-8-8z" stroke="#000" stroke-opacity="0" stroke-width="2" fill="#fff" fill-opacity="0"/><use xlink:href="#c" transform="matrix(1,0,0,1,223.00984167423235,127.65378975634361) translate(259.64920370370373 20.286037037037037)"/><use xlink:href="#d" transform="matrix(1,0,0,1,223.00984167423235,127.65378975634361) translate(441.5986481481482 20.286037037037037)"/><use xlink:href="#e" transform="matrix(1,0,0,1,223.00984167423235,127.65378975634361) translate(476.32124074074073 20.286037037037037)"/><use xlink:href="#f" transform="matrix(1,0,0,1,223.00984167423235,127.65378975634361) translate(523.464425925926 20.286037037037037)"/><use xlink:href="#g" transform="matrix(1,0,0,1,223.00984167423235,127.65378975634361) translate(560.0378703703703 20.286037037037037)"/><g filter="url(#h)"><path d="M185.86 553.9c0 33.13-26.86 60-60 60-33.13 0-60-26.87-60-60 0-33.14 26.87-60 60-60 33.14 0 60 26.86 60 60z" stroke="#5e5e5e" stroke-width="3" fill="#99d2f2"/><use xlink:href="#i" transform="matrix(1,0,0,1,70.86328888888897,498.8973530108341) translate(4.444444444444471 63.746111111111105)"/><use xlink:href="#j" transform="matrix(1,0,0,1,70.86328888888897,498.8973530108341) translate(24.666666666666682 63.746111111111105)"/><use xlink:href="#k" transform="matrix(1,0,0,1,70.86328888888897,498.8973530108341) translate(44.88888888888889 63.746111111111105)"/><use xlink:href="#l" transform="matrix(1,0,0,1,70.86328888888897,498.8973530108341) translate(65.1111111111111 63.746111111111105)"/><use xlink:href="#m" transform="matrix(1,0,0,1,70.86328888888897,498.8973530108341) translate(85.33333333333331 63.746111111111105)"/></g><g filter="url(#n)"><path d="M245.86 206.2c0-13.26 10.75-24 24-24h272c13.26 0 24 10.74 24 24v48c0 13.25-10.74 24-24 24h-272c-13.25 0-24-10.75-24-24z" stroke="#5e5e5e" stroke-width="3" fill="#fff"/><use xlink:href="#o" transform="matrix(1,0,0,1,250.86328888888892,187.19735301083415) translate(51.298666666666634 52.22666666666667)"/><use xlink:href="#p" transform="matrix(1,0,0,1,250.86328888888892,187.19735301083415) translate(72.63199999999998 52.22666666666667)"/><use xlink:href="#q" transform="matrix(1,0,0,1,250.86328888888892,187.19735301083415) translate(93.9653333333333 52.22666666666667)"/><use xlink:href="#r" transform="matrix(1,0,0,1,250.86328888888892,187.19735301083415) translate(115.29866666666663 52.22666666666667)"/><use xlink:href="#s" transform="matrix(1,0,0,1,250.86328888888892,187.19735301083415) translate(136.63199999999998 52.22666666666667)"/><use xlink:href="#t" transform="matrix(1,0,0,1,250.86328888888892,187.19735301083415) translate(157.96533333333332 52.22666666666667)"/><use xlink:href="#u" transform="matrix(1,0,0,1,250.86328888888892,187.19735301083415) translate(187 52.22666666666667)"/><use xlink:href="#v" transform="matrix(1,0,0,1,250.86328888888892,187.19735301083415) translate(208.33333333333334 52.22666666666667)"/><use xlink:href="#w" transform="matrix(1,0,0,1,250.86328888888892,187.19735301083415) translate(229.66666666666669 52.22666666666667)"/></g><path d="M145.86 233.4c0-4.42 3.6-8 8-8h64c4.42 0 8 3.58 8 8v641c0 4.42-3.58 8-8 8h-64c-4.4 0-8-3.58-8-8z" fill="none"/><path d="M225.86 882.4c-5.52 0-10-4.48-10-10V563.9c0-5.53-4.47-10-10-10 5.53 0 10-4.48 10-10V235.4c0-5.53 4.48-10 10-10" stroke="#333" stroke-width="3" fill="none"/><g filter="url(#n)"><path d="M245.86 371.2c0-13.26 10.75-24 24-24h272c13.26 0 24 10.74 24 24v48c0 13.25-10.74 24-24 24h-272c-13.25 0-24-10.75-24-24z" stroke="#5e5e5e" stroke-width="3" fill="#fff"/><use xlink:href="#x" transform="matrix(1,0,0,1,250.86328888888892,352.19735301083415) translate(55.28799999999998 52.22666666666667)"/><use xlink:href="#y" transform="matrix(1,0,0,1,250.86328888888892,352.19735301083415) translate(76.62133333333333 52.22666666666667)"/><use xlink:href="#z" transform="matrix(1,0,0,1,250.86328888888892,352.19735301083415) translate(97.95466666666665 52.22666666666667)"/><use xlink:href="#A" transform="matrix(1,0,0,1,250.86328888888892,352.19735301083415) translate(119.28799999999998 52.22666666666667)"/><use xlink:href="#B" transform="matrix(1,0,0,1,250.86328888888892,352.19735301083415) translate(148.0453333333333 52.22666666666667)"/><use xlink:href="#C" transform="matrix(1,0,0,1,250.86328888888892,352.19735301083415) translate(169.37866666666665 52.22666666666667)"/><use xlink:href="#D" transform="matrix(1,0,0,1,250.86328888888892,352.19735301083415) translate(190.712 52.22666666666667)"/><use xlink:href="#E" transform="matrix(1,0,0,1,250.86328888888892,352.19735301083415) translate(212.04533333333333 52.22666666666667)"/><use xlink:href="#F" transform="matrix(1,0,0,1,250.86328888888892,352.19735301083415) translate(233.37866666666667 52.22666666666667)"/></g><g filter="url(#n)"><path d="M245.86 536.2c0-13.26 10.75-24 24-24h272c13.26 0 24 10.74 24 24v48c0 13.25-10.74 24-24 24h-272c-13.25 0-24-10.75-24-24z" stroke="#5e5e5e" stroke-width="3" fill="#fff"/><use xlink:href="#x" transform="matrix(1,0,0,1,250.86328888888892,517.1973530108341) translate(15.085333333333324 52.22666666666667)"/><use xlink:href="#G" transform="matrix(1,0,0,1,250.86328888888892,517.1973530108341) translate(36.41866666666666 52.22666666666667)"/><use xlink:href="#H" transform="matrix(1,0,0,1,250.86328888888892,517.1973530108341) translate(100.71733333333333 52.22666666666667)"/><use xlink:href="#I" transform="matrix(1,0,0,1,250.86328888888892,517.1973530108341) translate(122.05066666666667 52.22666666666667)"/><use xlink:href="#J" transform="matrix(1,0,0,1,250.86328888888892,517.1973530108341) translate(143.38400000000001 52.22666666666667)"/><use xlink:href="#H" transform="matrix(1,0,0,1,250.86328888888892,517.1973530108341) translate(230.9146666666667 52.22666666666667)"/><use xlink:href="#K" transform="matrix(1,0,0,1,250.86328888888892,517.1973530108341) translate(252.24800000000005 52.22666666666667)"/><use xlink:href="#L" transform="matrix(1,0,0,1,250.86328888888892,517.1973530108341) translate(273.58133333333336 52.22666666666667)"/></g><g filter="url(#n)"><path d="M245.86 701.2c0-13.26 10.75-24 24-24h272c13.26 0 24 10.74 24 24v48c0 13.25-10.74 24-24 24h-272c-13.25 0-24-10.75-24-24z" stroke="#5e5e5e" stroke-width="3" fill="#fff"/><use xlink:href="#M" transform="matrix(1,0,0,1,250.86328888888892,682.1973530108341) translate(112.33333333333333 52.22666666666667)"/><use xlink:href="#N" transform="matrix(1,0,0,1,250.86328888888892,682.1973530108341) translate(133.66666666666666 52.22666666666667)"/><use xlink:href="#O" transform="matrix(1,0,0,1,250.86328888888892,682.1973530108341) translate(155 52.22666666666667)"/><use xlink:href="#P" transform="matrix(1,0,0,1,250.86328888888892,682.1973530108341) translate(176.33333333333331 52.22666666666667)"/></g><g filter="url(#n)"><path d="M245.86 866.2c0-13.26 10.75-24 24-24h272c13.26 0 24 10.74 24 24v48c0 13.25-10.74 24-24 24h-272c-13.25 0-24-10.75-24-24z" stroke="#5e5e5e" stroke-width="3" fill="#fff"/><use xlink:href="#Q" transform="matrix(1,0,0,1,250.86328888888892,847.1973530108341) translate(133.66666666666666 52.22666666666667)"/></g><path d="M605.86 233.4c0-4.42 3.6-8 8-8h84c4.42 0 8 3.58 8 8v641c0 4.42-3.58 8-8 8h-84c-4.4 0-8-3.58-8-8z" fill="none"/><path d="M605.86 882.4c5.53 0 10-4.48 10-10V563.9c0-5.53 4.48-10 10-10-5.52 0-10-4.48-10-10V235.4c0-5.53-4.47-10-10-10" stroke="#333" stroke-width="3" fill="none"/><g filter="url(#R)"><path d="M785.86 553.9c0 33.13-26.86 60-60 60-33.13 0-60-26.87-60-60 0-33.14 26.87-60 60-60 33.14 0 60 26.86 60 60z" stroke="#5e5e5e" stroke-width="3" fill="#ffbbb1"/><use xlink:href="#S" transform="matrix(1,0,0,1,670.863288888889,498.8973530108341) translate(1 62.785)"/><use xlink:href="#T" transform="matrix(1,0,0,1,670.863288888889,498.8973530108341) translate(19 62.785)"/><use xlink:href="#U" transform="matrix(1,0,0,1,670.863288888889,498.8973530108341) translate(37 62.785)"/><use xlink:href="#V" transform="matrix(1,0,0,1,670.863288888889,498.8973530108341) translate(55 62.785)"/></g><path d="M765.86 233.4c0-4.42 3.6-8 8-8h64c4.42 0 8 3.58 8 8v641c0 4.42-3.58 8-8 8h-64c-4.4 0-8-3.58-8-8z" fill="none"/><path d="M845.86 882.4c-5.52 0-10-4.48-10-10V563.9c0-5.53-4.47-10-10-10 5.53 0 10-4.48 10-10V235.4c0-5.53 4.48-10 10-10" stroke="#333" stroke-width="3" fill="none"/><g filter="url(#n)"><path d="M905.86 206.4c0-13.26 10.75-24 24-24h272c13.26 0 24 10.74 24 24v48c0 13.25-10.74 24-24 24h-272c-13.25 0-24-10.75-24-24z" stroke="#5e5e5e" stroke-width="3" fill="#fff"/><use xlink:href="#W" transform="matrix(1,0,0,1,910.8632888888887,187.39735301083397) translate(90.99999999999999 52.22666666666667)"/><use xlink:href="#X" transform="matrix(1,0,0,1,910.8632888888887,187.39735301083397) translate(112.33333333333331 52.22666666666667)"/><use xlink:href="#Y" transform="matrix(1,0,0,1,910.8632888888887,187.39735301083397) translate(133.66666666666666 52.22666666666667)"/><use xlink:href="#Z" transform="matrix(1,0,0,1,910.8632888888887,187.39735301083397) translate(155 52.22666666666667)"/><use xlink:href="#aa" transform="matrix(1,0,0,1,910.8632888888887,187.39735301083397) translate(176.33333333333331 52.22666666666667)"/><use xlink:href="#ab" transform="matrix(1,0,0,1,910.8632888888887,187.39735301083397) translate(197.66666666666669 52.22666666666667)"/></g><g filter="url(#n)"><path d="M905.86 338.4c0-13.26 10.75-24 24-24h272c13.26 0 24 10.74 24 24v48c0 13.25-10.74 24-24 24h-272c-13.25 0-24-10.75-24-24z" stroke="#5e5e5e" stroke-width="3" fill="#fff"/><use xlink:href="#ac" transform="matrix(1,0,0,1,910.8632888888887,319.39735301083397) translate(26.99999999999997 52.22666666666667)"/><use xlink:href="#ad" transform="matrix(1,0,0,1,910.8632888888887,319.39735301083397) translate(48.33333333333331 52.22666666666667)"/><use xlink:href="#ae" transform="matrix(1,0,0,1,910.8632888888887,319.39735301083397) translate(69.66666666666664 52.22666666666667)"/><use xlink:href="#af" transform="matrix(1,0,0,1,910.8632888888887,319.39735301083397) translate(90.99999999999997 52.22666666666667)"/><use xlink:href="#ag" transform="matrix(1,0,0,1,910.8632888888887,319.39735301083397) translate(112.33333333333331 52.22666666666667)"/><use xlink:href="#ah" transform="matrix(1,0,0,1,910.8632888888887,319.39735301083397) translate(133.66666666666666 52.22666666666667)"/><use xlink:href="#ai" transform="matrix(1,0,0,1,910.8632888888887,319.39735301083397) translate(155 52.22666666666667)"/><use xlink:href="#aj" transform="matrix(1,0,0,1,910.8632888888887,319.39735301083397) translate(176.33333333333334 52.22666666666667)"/><use xlink:href="#aj" transform="matrix(1,0,0,1,910.8632888888887,319.39735301083397) translate(197.66666666666669 52.22666666666667)"/><use xlink:href="#ak" transform="matrix(1,0,0,1,910.8632888888887,319.39735301083397) translate(219.00000000000003 52.22666666666667)"/><use xlink:href="#al" transform="matrix(1,0,0,1,910.8632888888887,319.39735301083397) translate(240.33333333333337 52.22666666666667)"/><use xlink:href="#am" transform="matrix(1,0,0,1,910.8632888888887,319.39735301083397) translate(261.66666666666674 52.22666666666667)"/></g><g filter="url(#n)"><path d="M905.86 470.4c0-13.26 10.75-24 24-24h272c13.26 0 24 10.74 24 24v48c0 13.25-10.74 24-24 24h-272c-13.25 0-24-10.75-24-24z" stroke="#5e5e5e" stroke-width="3" fill="#fff"/><use xlink:href="#an" transform="matrix(1,0,0,1,910.8632888888887,451.39735301083397) translate(51.9493333333333 52.22666666666667)"/><use xlink:href="#ao" transform="matrix(1,0,0,1,910.8632888888887,451.39735301083397) translate(73.28266666666664 52.22666666666667)"/><use xlink:href="#ap" transform="matrix(1,0,0,1,910.8632888888887,451.39735301083397) translate(94.61599999999997 52.22666666666667)"/><use xlink:href="#aq" transform="matrix(1,0,0,1,910.8632888888887,451.39735301083397) translate(115.9493333333333 52.22666666666667)"/><use xlink:href="#ar" transform="matrix(1,0,0,1,910.8632888888887,451.39735301083397) translate(137.28266666666664 52.22666666666667)"/><use xlink:href="#as" transform="matrix(1,0,0,1,910.8632888888887,451.39735301083397) translate(158.61599999999999 52.22666666666667)"/><use xlink:href="#at" transform="matrix(1,0,0,1,910.8632888888887,451.39735301083397) translate(187.65066666666667 52.22666666666667)"/><use xlink:href="#au" transform="matrix(1,0,0,1,910.8632888888887,451.39735301083397) translate(208.984 52.22666666666667)"/><use xlink:href="#av" transform="matrix(1,0,0,1,910.8632888888887,451.39735301083397) translate(229.01600000000002 52.22666666666667)"/></g><g filter="url(#n)"><path d="M905.86 602.4c0-13.26 10.75-24 24-24h272c13.26 0 24 10.74 24 24v48c0 13.25-10.74 24-24 24h-272c-13.25 0-24-10.75-24-24z" stroke="#5e5e5e" stroke-width="3" fill="#fff"/><use xlink:href="#aw" transform="matrix(1,0,0,1,910.8632888888887,583.397353010834) translate(26.99999999999997 52.22666666666667)"/><use xlink:href="#ax" transform="matrix(1,0,0,1,910.8632888888887,583.397353010834) translate(48.33333333333331 52.22666666666667)"/><use xlink:href="#aa" transform="matrix(1,0,0,1,910.8632888888887,583.397353010834) translate(69.66666666666664 52.22666666666667)"/><use xlink:href="#ay" transform="matrix(1,0,0,1,910.8632888888887,583.397353010834) translate(90.99999999999997 52.22666666666667)"/><use xlink:href="#H" transform="matrix(1,0,0,1,910.8632888888887,583.397353010834) translate(112.33333333333331 52.22666666666667)"/><use xlink:href="#az" transform="matrix(1,0,0,1,910.8632888888887,583.397353010834) translate(133.66666666666666 52.22666666666667)"/><use xlink:href="#aA" transform="matrix(1,0,0,1,910.8632888888887,583.397353010834) translate(155 52.22666666666667)"/><use xlink:href="#aB" transform="matrix(1,0,0,1,910.8632888888887,583.397353010834) translate(176.33333333333334 52.22666666666667)"/><use xlink:href="#aC" transform="matrix(1,0,0,1,910.8632888888887,583.397353010834) translate(197.66666666666669 52.22666666666667)"/><use xlink:href="#aD" transform="matrix(1,0,0,1,910.8632888888887,583.397353010834) translate(240.33333333333334 52.22666666666667)"/><use xlink:href="#aE" transform="matrix(1,0,0,1,910.8632888888887,583.397353010834) translate(261.6666666666667 52.22666666666667)"/></g><g filter="url(#n)"><path d="M905.86 734.4c0-13.26 10.75-24 24-24h272c13.26 0 24 10.74 24 24v48c0 13.25-10.74 24-24 24h-272c-13.25 0-24-10.75-24-24z" stroke="#5e5e5e" stroke-width="3" fill="#fff"/><use xlink:href="#aF" transform="matrix(1,0,0,1,910.8632888888887,715.397353010834) translate(9.506666666666632 36.89866666666667)"/><use xlink:href="#aG" transform="matrix(1,0,0,1,910.8632888888887,715.397353010834) translate(30.839999999999968 36.89866666666667)"/><use xlink:href="#aH" transform="matrix(1,0,0,1,910.8632888888887,715.397353010834) translate(173.79466666666667 36.89866666666667)"/><use xlink:href="#aI" transform="matrix(1,0,0,1,910.8632888888887,715.397353010834) translate(195.12800000000001 36.89866666666667)"/><use xlink:href="#aJ" transform="matrix(1,0,0,1,910.8632888888887,715.397353010834) translate(216.46133333333336 36.89866666666667)"/><use xlink:href="#aa" transform="matrix(1,0,0,1,910.8632888888887,715.397353010834) translate(236.49333333333337 36.89866666666667)"/><use xlink:href="#ay" transform="matrix(1,0,0,1,910.8632888888887,715.397353010834) translate(257.8266666666667 36.89866666666667)"/><use xlink:href="#aK" transform="matrix(1,0,0,1,910.8632888888887,715.397353010834) translate(279.1600000000001 36.89866666666667)"/><use xlink:href="#aL" transform="matrix(1,0,0,1,910.8632888888887,715.397353010834) translate(123 67.55466666666666)"/><use xlink:href="#aM" transform="matrix(1,0,0,1,910.8632888888887,715.397353010834) translate(144.33333333333334 67.55466666666666)"/><use xlink:href="#aN" transform="matrix(1,0,0,1,910.8632888888887,715.397353010834) translate(165.66666666666669 67.55466666666666)"/></g><g filter="url(#n)"><path d="M900.76 866.4c0-13.26 10.74-24 24-24h272c13.25 0 24 10.74 24 24v48c0 13.25-10.75 24-24 24h-272c-13.26 0-24-10.75-24-24z" stroke="#5e5e5e" stroke-width="3" fill="#fff"/><use xlink:href="#aO" transform="matrix(1,0,0,1,905.757781215018,847.397353010834) translate(133.66666666666666 52.22666666666667)"/></g><defs><path fill="#999" d="M822-706l-95 9c-2 216-1 436 0 653l95 9V0H493v-35l91-8c2-99 2-201 2-317H280c0 115 0 217 3 317l91 8V0H45v-35l95-9c1-215 1-436 0-652l-95-10v-36h329v36l-91 9c-3 98-3 198-3 298h306c0-99 0-199-2-298l-91-9v-36h329v36" id="aP"/><path fill="#999" d="M353-299c-95 20-184 75-184 163 0 59 32 87 80 87 33 0 58-15 104-53v-197zM562-69l18 15c-26 50-61 69-114 69-61 0-96-34-109-88-55 58-94 89-168 89-84 0-145-50-145-134 0-83 46-132 200-180 30-10 70-21 109-30v-51c6-131-54-146-154-129l-14 72c-4 55-31 77-65 77-33 0-54-16-60-46 13-90 96-146 235-146 131 0 186 57 186 197v258c1 78 50 74 81 27" id="aQ"/><path fill="#999" d="M912-39l68 8V0H710v-31l69-9c2-104 2-213 2-317 0-94-26-122-78-122-42 0-84 21-130 66 9 115 0 249 7 374l65 8V0H374v-31l72-9c2-103 2-212 2-316 4-176-128-136-204-56 0 125 0 248 2 373l65 8V0H37v-31l73-9c1-133 6-293-2-416l-79-8v-25l192-61 14 9 7 90c58-67 117-100 185-100 72 0 119 33 139 104 64-76 124-104 190-104 103 0 154 61 154 196 0 104 0 212 2 316" id="aR"/><path fill="#999" d="M180-307h171c46 0 57-23 57-74 0-81-43-133-104-133-63 0-118 61-124 207zm346 37H180c4 153 80 220 177 220 72 0 115-30 150-77l20 14C487-31 411 16 312 16 155 16 41-86 41-268c0-180 132-283 272-283 158-1 246 125 213 281" id="aS"/><path fill="#999" d="M235-541l9 139c32-96 99-149 159-149 42 0 78 17 90 64-3 45-22 76-69 76-37 2-65-32-90-60-42 33-69 77-90 147 0 91 0 187 2 281l92 12V0H37v-31l73-9c2-134 5-292-2-416l-79-8v-25l192-61" id="aT"/><path fill="#999" d="M184-593c0 88 86 129 165 162 149 61 202 124 202 232C551-68 448 19 275 19 192 19 106-4 50-40l6-166h56l42 161c34 15 66 20 108 20 102 0 164-48 164-131 0-70-33-106-122-142C174-350 60-423 60-553c0-132 108-207 259-207 78 0 142 22 194 56l-7 157h-56l-42-154c-96-41-224 3-224 108" id="aU"/><path fill="#999" d="M246-443v358c31 28 62 37 100 37 82 0 141-57 141-220 0-158-51-221-134-221-32 0-65 8-107 46zm-11-97l7 66c152-159 386-63 386 203C628-94 523 16 391 16c-52 0-103-18-147-69 0 92 0 172 2 273l86 10v30H37v-30l76-9c2-227 4-455-1-677l-81-8v-25l190-61" id="aV"/><path fill="#999" d="M311 16C156 16 41-90 41-269s124-282 270-282c145 0 270 102 270 282S464 16 311 16zm0-37c81 0 129-81 129-247 0-165-48-246-129-246-83 0-129 81-129 246 0 166 46 247 129 247" id="aW"/><path fill="#999" d="M587-39l68 8V0H381v-31l70-9c4-105 3-217 3-323 0-87-25-117-79-117-37 0-82 20-131 65 0 126 0 250 2 376l65 8V0H37v-31l73-9c2-134 5-292-2-416l-79-8v-25l192-61 14 9 7 91c63-73 125-101 190-101 94 0 153 60 153 194 0 105 0 214 2 318" id="aX"/><g id="a"><use transform="matrix(0.026222222222222223,0,0,0.026222222222222223,0,0)" xlink:href="#aP"/><use transform="matrix(0.026222222222222223,0,0,0.026222222222222223,22.73466666666667,0)" xlink:href="#aQ"/><use transform="matrix(0.026222222222222223,0,0,0.026222222222222223,37.996,0)" xlink:href="#aR"/><use transform="matrix(0.026222222222222223,0,0,0.026222222222222223,64.428,0)" xlink:href="#aR"/><use transform="matrix(0.026222222222222223,0,0,0.026222222222222223,90.86,0)" xlink:href="#aS"/><use transform="matrix(0.026222222222222223,0,0,0.026222222222222223,105.88533333333334,0)" xlink:href="#aT"/><use transform="matrix(0.026222222222222223,0,0,0.026222222222222223,118.91777777777779,0)" xlink:href="#aU"/><use transform="matrix(0.026222222222222223,0,0,0.026222222222222223,134.44133333333335,0)" xlink:href="#aV"/><use transform="matrix(0.026222222222222223,0,0,0.026222222222222223,151.95777777777778,0)" xlink:href="#aW"/><use transform="matrix(0.026222222222222223,0,0,0.026222222222222223,168.24177777777777,0)" xlink:href="#aW"/><use transform="matrix(0.026222222222222223,0,0,0.026222222222222223,184.52577777777776,0)" xlink:href="#aX"/></g><path fill="#999" d="M785-742v36l-101 14-4 386C679-80 580 19 412 19c-167 0-281-84-281-308 0-137 1-271-3-408l-88-9v-36h334v36l-102 10c-4 128-3 259-3 389 0 184 66 250 181 250 122 0 188-74 187-260l-3-374-116-15v-36h267" id="aY"/><path fill="#999" d="M260-337l52 16c105 35 148 88 148 165 0 102-82 172-229 172-72 0-128-16-185-46l4-130h58l28 121c26 11 54 16 87 16 80 0 122-31 122-86 0-44-22-75-101-98-96-28-194-72-194-174 0-96 75-170 212-170 64 0 113 16 168 45l-7 120h-51l-31-108c-24-12-47-18-76-18-66 0-104 32-104 81 0 42 22 69 99 94" id="aZ"/><path fill="#999" d="M270-217c64 0 101-59 101-153 0-91-37-148-98-148-62 0-99 58-99 151 0 92 34 150 96 150zm93 244c-66 0-164 5-212-8-23 27-34 51-34 86 0 74 57 113 148 113 129 0 194-46 194-107 0-46-24-84-96-84zm210-567v73l-117-9c84 135 2 302-185 293-42 0-78-7-108-19-35 49-37 118 54 118h147c143 0 201 57 201 147 0 105-103 197-300 197-171 0-235-60-235-135 0-46 32-85 102-115C87-7 60-34 60-80s23-82 81-133c-56-32-86-87-86-156 0-108 77-182 218-182 67 0 120 17 156 47l127-47" id="ba"/><g id="b"><use transform="matrix(0.026222222222222223,0,0,0.026222222222222223,0,0)" xlink:href="#aY"/><use transform="matrix(0.026222222222222223,0,0,0.026222222222222223,21.423555555555556,0)" xlink:href="#aZ"/><use transform="matrix(0.026222222222222223,0,0,0.026222222222222223,34.456,0)" xlink:href="#aQ"/><use transform="matrix(0.026222222222222223,0,0,0.026222222222222223,49.717333333333336,0)" xlink:href="#ba"/><use transform="matrix(0.026222222222222223,0,0,0.026222222222222223,65.26711111111112,0)" xlink:href="#aS"/></g><path fill="#999" d="M363-729v35l-104 11c-8 201 11 497-13 675-16 119-109 181-203 181-39 0-76-11-85-46 5-35 29-47 59-47 33 0 75 29 102 49 36-28 59-74 59-158 0-56-3-149-8-653L55-694v-35h308" id="bb"/><path fill="#999" d="M133-301h234c44 0 54-22 54-54 0-70-53-133-130-133-73 0-146 60-158 187zm356 39l-357-1c1 148 79 221 185 221 71 0 118-31 157-78l21 16C454-32 385 14 292 14 152 14 51-83 51-254c0-167 113-274 245-274 136-4 227 116 193 266" id="bc"/><path fill="#999" d="M203-45l90 13V0H30v-32l93-13c4-224 1-454 2-681l-91-8v-31l155-42 15 9c-5 246-4 504-1 753" id="bd"/><path fill="#999" d="M552-514v31l-61 12L307 16C238 199 170 273 89 273c-49 0-92-25-93-63 6-27 34-40 63-40 30-2 59 20 83 45 57-39 93-113 120-189L64-474l-64-9v-31h248v32l-96 11L299-73l142-397-98-13v-31h209" id="be"/><path fill="#999" d="M522-192h52L566 0H24v-35l432-650H121L90-539H37l9-190h506v33L123-45h367" id="bf"/><path fill="#999" d="M540-45l80 13V0H376v-32l85-12c2-96 2-190 2-284 0-104-31-138-96-138-50 0-101 18-166 80 0 116 0 224 2 342l79 12V0H37v-32l86-13c4-227 1-452 2-681l-91-8v-31l153-42 15 9c-5 122-4 248-4 375 58-64 134-105 203-105 91 0 137 54 137 196 0 95 0 190 2 287" id="bg"/><path fill="#999" d="M360-114v-173c-41 11-85 25-112 36-97 37-115 79-115 119 0 60 38 87 92 87 42 0 71-18 135-69zm164 55l17 21c-24 36-52 50-87 50-51 0-83-34-92-89-61 62-101 91-166 91-80 0-144-46-144-132 0-67 39-116 175-165 39-12 87-26 133-36 6-116-22-178-109-169-21 0-44 2-70 11-17 41-17 119-71 118-25 0-42-14-44-38 21-82 99-131 205-131 111 0 165 50 165 180v237c-4 88 50 92 88 52" id="bh"/><path fill="#999" d="M545-45l79 13V0H379v-32l85-12c2-95 2-190 2-284 0-104-30-138-94-138-49 0-100 21-164 80 0 115 0 225 2 341l79 13V0H45v-32l84-12c4-128 5-273-1-391l-89-7v-32l144-53 14 10 8 92c58-64 133-103 200-103 91 0 137 55 137 196 0 96 0 191 3 287" id="bi"/><path fill="#999" d="M258-207c74 0 119-60 119-145 0-83-43-140-116-140s-119 58-119 143 44 142 116 142zm91 220c-60 0-126 3-181-3-34 33-50 62-50 103 0 74 59 108 150 108 125 0 191-54 191-120 0-50-30-88-110-88zm184-529v59l-114-1c21 28 32 64 32 108 5 144-140 210-275 165-42 49-63 129 39 130h147C473-55 527-8 527 78c0 93-87 184-260 184C26 262-34 84 148 3 104-9 78-36 78-77c0-36 20-71 73-119-51-29-83-81-83-154 0-113 82-178 193-178 52 0 97 14 131 40l124-39" id="bj"/><path fill="#999" d="M163 13c-38 0-66-30-66-66 0-37 28-68 66-68s66 31 66 68c0 36-28 66-66 66" id="bk"/><path fill="#999" d="M164-663c-35 0-63-25-63-61 0-37 28-61 63-61 36 0 64 24 64 61 0 36-28 61-64 61zm42 618l79 13V0H41v-32l86-13c2-128 4-270 0-391l-92-6v-33l157-52 15 10c-4 156-4 312-1 472" id="bl"/><path fill="#999" d="M326-61l20 25c-28 32-69 50-120 50-76 0-118-41-118-126 2-112 1-241 1-356H11v-37l102-12 24-148h55l-6 151h150v46H185v352c-3 101 84 100 141 55" id="bm"/><path fill="#999" d="M520-44l77 12V0L455 9l-8-100C342 46 107 86 110-184l3-278-83-14v-32l150-13 10 11c-5 104-5 211-4 320 0 104 31 140 96 140 57 0 112-27 163-80l2-332-82-14v-32l148-13 11 11c-6 151-4 310-4 466" id="bn"/><path fill="#999" d="M201-411v310C329 18 495-23 495-257c0-226-153-285-294-154zm1-387c-4 115-4 234-4 353 145-166 378-72 378 182 0 242-228 372-377 198l-8 75L37 0v-32l86-13c4-226 1-452 2-680l-91-9v-31l153-42" id="bo"/><path fill="#999" d="M542-255c1 360-492 359-491 0 0-364 490-364 491 0zM297-26c100 0 161-79 161-229 0-149-61-233-161-233-101 0-161 84-161 233 0 150 60 229 161 229" id="bp"/><g id="c"><use transform="matrix(0.015296296296296296,0,0,0.015296296296296296,0,0)" xlink:href="#bb"/><use transform="matrix(0.015296296296296296,0,0,0.015296296296296296,6.149111111111111,0)" xlink:href="#bc"/><use transform="matrix(0.015296296296296296,0,0,0.015296296296296296,14.546777777777777,0)" xlink:href="#bd"/><use transform="matrix(0.015296296296296296,0,0,0.015296296296296296,19.502777777777776,0)" xlink:href="#bd"/><use transform="matrix(0.015296296296296296,0,0,0.015296296296296296,24.458777777777776,0)" xlink:href="#be"/><use transform="matrix(0.015296296296296296,0,0,0.015296296296296296,32.73407407407407,0)" xlink:href="#bf"/><use transform="matrix(0.015296296296296296,0,0,0.015296296296296296,41.89655555555555,0)" xlink:href="#bg"/><use transform="matrix(0.015296296296296296,0,0,0.015296296296296296,51.91562962962962,0)" xlink:href="#bh"/><use transform="matrix(0.015296296296296296,0,0,0.015296296296296296,60.359185185185176,0)" xlink:href="#bi"/><use transform="matrix(0.015296296296296296,0,0,0.015296296296296296,70.42414814814813,0)" xlink:href="#bj"/><use transform="matrix(0.015296296296296296,0,0,0.015296296296296296,78.99007407407406,0)" xlink:href="#bk"/><use transform="matrix(0.015296296296296296,0,0,0.015296296296296296,83.97666666666665,0)" xlink:href="#bj"/><use transform="matrix(0.015296296296296296,0,0,0.015296296296296296,92.54259259259257,0)" xlink:href="#bl"/><use transform="matrix(0.015296296296296296,0,0,0.015296296296296296,97.51388888888887,0)" xlink:href="#bm"/><use transform="matrix(0.015296296296296296,0,0,0.015296296296296296,102.92877777777775,0)" xlink:href="#bg"/><use transform="matrix(0.015296296296296296,0,0,0.015296296296296296,112.94785185185182,0)" xlink:href="#bn"/><use transform="matrix(0.015296296296296296,0,0,0.015296296296296296,122.72218518518515,0)" xlink:href="#bo"/><use transform="matrix(0.015296296296296296,0,0,0.015296296296296296,132.31296296296293,0)" xlink:href="#bk"/><use transform="matrix(0.015296296296296296,0,0,0.015296296296296296,137.29955555555551,0)" xlink:href="#bl"/><use transform="matrix(0.015296296296296296,0,0,0.015296296296296296,142.2708518518518,0)" xlink:href="#bp"/></g><path fill="#999" d="M109 272V-815h52V272h-52" id="bq"/><use transform="matrix(0.015296296296296296,0,0,0.015296296296296296,0,0)" xlink:href="#bq" id="d"/><path fill="#999" d="M927-694l-104 11c-3 208-3 427 0 637l104 10V0H638v-36l98-10c2-196 2-391 3-589L487 0h-41L184-631c8 260 3 347 4 583l98 12V0H45v-36l97-12 1-634-101-12v-35h186l255 620 246-620h198v35" id="br"/><g id="e"><use transform="matrix(0.015296296296296296,0,0,0.015296296296296296,0,0)" xlink:href="#br"/><use transform="matrix(0.015296296296296296,0,0,0.015296296296296296,14.975074074074074,0)" xlink:href="#bh"/><use transform="matrix(0.015296296296296296,0,0,0.015296296296296296,23.418629629629628,0)" xlink:href="#be"/></g><path fill="#999" d="M53-60c106-130 326-334 326-488 0-117-88-181-204-146-19 42-29 142-78 139-22 0-37-12-48-31 17-105 110-158 214-158 135 0 198 78 198 191 0 92-51 162-208 332-28 31-80 86-135 146h376V0H53v-60" id="bs"/><path fill="#999" d="M171 36c-29-20-74-57-74-97 0-63 76-81 116-32 46 156-64 282-178 332l-13-29c74-40 127-92 149-174" id="bt"/><g id="f"><use transform="matrix(0.015296296296296296,0,0,0.015296296296296296,0,0)" xlink:href="#bs"/><use transform="matrix(0.015296296296296296,0,0,0.015296296296296296,8.397666666666666,0)" xlink:href="#bs"/><use transform="matrix(0.015296296296296296,0,0,0.015296296296296296,16.290555555555553,0)" xlink:href="#bt"/></g><path fill="#999" d="M130-371c0 272 69 345 141 345 70 0 138-74 138-345 0-259-68-332-138-332-72 0-141 73-141 332zm141-373c113 0 221 102 221 373C492-88 384 14 271 14 157 14 47-88 47-371c0-271 110-373 224-373" id="bu"/><path fill="#999" d="M322-51l156 19V0H83v-32l158-19c4-202 1-408 2-613L93-647v-36l216-56 15 11c-7 220-5 453-2 677" id="bv"/><g id="g"><use transform="matrix(0.015296296296296296,0,0,0.015296296296296296,0,0)" xlink:href="#bs"/><use transform="matrix(0.015296296296296296,0,0,0.015296296296296296,8.397666666666666,0)" xlink:href="#bu"/><use transform="matrix(0.015296296296296296,0,0,0.015296296296296296,16.795333333333332,0)" xlink:href="#bs"/><use transform="matrix(0.015296296296296296,0,0,0.015296296296296296,24.68822222222222,0)" xlink:href="#bv"/></g><path d="M259-838l103 33c-4 11-16 19-38 18-27 75-60 147-96 214l41 15c-3 9-13 16-30 18V55c-1 7-37 26-65 22v-560c-39 60-82 113-126 156l-14-10c87-121 175-311 225-501zm200 387l98 31c-4 12-16 21-37 20-49 132-122 248-207 321l-15-11c66-85 127-219 161-361zM567 77c-13-60-39-61-114-74v-16s110 8 132 8c19 0 25-6 25-22v-578l99 11c-3 14-11 23-35 26v548c0 54-11 87-107 97zm174-515l15-6c261 216 215 395 140 330-19-97-98-234-155-324zm145-252l75 72c-7 8-18 9-37 11-23 42-64 103-98 140l-14-7c13-39 29-99 39-145H471c-46 87-101 161-162 216l-14-10c75-101 146-258 184-422l102 33c-5 12-16 20-38 19-17 47-36 92-57 135h360" id="bw"/><use transform="matrix(0.02022222222222221,0,0,0.02022222222222221,0,0)" xlink:href="#bw" id="i"/><path d="M222-264h245v-265H222v265zm271-334l81 61c-7 8-23 16-42 20v338c-2 7-40 25-65 22v-77H222v94c1 8-35 24-63 21v-470l68 31h231zm320-163l52-64s58 44 93 78c-2 11-11 16-25 16H801v705c0 53-13 93-120 103-2-21-11-39-28-48-21-12-52-21-112-28v-15S680-4 707-4c22 0 29-8 29-26v-701H50l-8-30h771" id="bx"/><use transform="matrix(0.02022222222222221,0,0,0.02022222222222221,0,0)" xlink:href="#bx" id="j"/><path d="M356-778l12-7c272 181 218 367 138 302-18-92-93-216-150-295zm186 471l8 14c-74 58-198 158-344 262-5 17-17 29-26 33l-45-88c31-17 36-22 36-43v-653l104 12c-2 15-13 24-38 28v614c80-45 192-112 305-179zm218-493l109 12c-3 15-13 26-38 29-6 213-15 382-86 517C1034-73 980 128 897 64c-15-92-92-206-163-285C660-95 526 2 280 81l-9-19c462-186 483-422 489-862" id="by"/><use transform="matrix(0.02022222222222221,0,0,0.02022222222222221,0,0)" xlink:href="#by" id="k"/><path d="M537-293h257v-210H537v210zm-311 0h246v-210H234c0 73 1 137-8 210zm246-444H234v204h238v-204zm322 0H537v204h257v-204zM753 75c-11-61-38-60-112-74v-16s107 9 129 9c19 0 24-7 24-23v-235H537V47c2 6-32 24-65 21v-332H222C205-140 160-17 53 76L39 66c173-229 121-518 130-865l77 32h538l35-44 88 67c-7 9-25 18-47 23v699c0 54-10 87-107 97" id="bz"/><use transform="matrix(0.02022222222222221,0,0,0.02022222222222221,0,0)" xlink:href="#bz" id="l"/><path d="M427-833l11-7c196 45 135 190 66 138-6-44-42-100-77-131zm435 621l2 176c28 8 36 15 36 30 0 37-46 46-301 46H410c-114 0-147-16-147-87v-518l100 12c-2 12-12 23-34 26v299c151-67 308-170 385-248l95 58c-7 10-23 13-50 6-99 71-264 156-430 208v145c0 29 11 38 83 38 96-1 299 2 365-4 20-2 26-7 31-19 10-22 24-82 41-168h13zm18-513l79 76c-7 8-19 9-39 10-28 39-81 94-120 127l-13-7c16-35 37-89 50-132H185c3 71-26 117-56 138-25 19-64 20-75-5-11-23 4-44 25-57 41-24 79-87 73-157l17-1c6 18 10 35 13 52h653" id="bA"/><use transform="matrix(0.02022222222222221,0,0,0.02022222222222221,0,0)" xlink:href="#bA" id="m"/><filter id="h" filterUnits="objectBoundingBox" x="-.09" y="-.03" width="1.17" height="1.17"><feOffset result="offOut" in="SourceAlpha" dx="-.29" dy="5.99"/><feGaussianBlur result="blurOut" in="offOut" stdDeviation="5"/><feColorMatrix result="colorOut" in="blurOut" values="0 0 0 0 0.3686274509803922 0 0 0 0 0.3686274509803922 0 0 0 0 0.3686274509803922 0 0 0 1 0"/><feBlend in="SourceGraphic" in2="colorOut"/></filter><path fill="#161209" d="M399-800v445c-1 10-36 27-63 23v-505l100 11c-3 13-12 23-37 26zm-195 84v325c-1 10-35 27-62 23v-385l99 11c-2 14-11 22-37 26zm6 456V10h145v-270H210zm358 0H417V10h151v-270zm207 0H630V10h145v-270zm70 270l40-54s46 39 73 68c-2 11-12 16-25 16H52l-9-30h103v-333l76 33h546l34-34 68 53c-5 6-17 12-31 16V10h6zM639-572l11-7c211 94 146 247 79 190-4-61-49-136-90-183zm196-95l44-59s52 42 84 73c-2 11-13 16-26 16H586c-41 90-89 173-141 234l-16-9c59-106 117-271 152-427l100 30c-4 11-14 19-37 19-14 42-29 83-45 123h236" id="bB"/><use transform="matrix(0.021333333333333336,0,0,0.021333333333333336,0,0)" xlink:href="#bB" id="o"/><path fill="#161209" d="M290-692H140v396h150v-396zm0 424H140v129c1 10-33 25-62 22v-636l67 32h135l35-41 80 62c-7 8-22 16-42 20v481c-2 8-38 26-63 23v-92zm548-226l46-58s52 41 84 71c-3 11-13 16-26 16H784V56c3 5-34 24-67 20v-541H521c1 199-22 399-248 536l-13-12c244-204 192-455 198-822l70 31c115-26 240-69 307-105l79 70c-9 8-28 8-50-1-86 26-217 50-343 60v214h317" id="bC"/><use transform="matrix(0.021333333333333336,0,0,0.021333333333333336,0,0)" xlink:href="#bC" id="p"/><path fill="#161209" d="M812-711h-84v104h84v-104zm0 242v-108h-84v108h84zM569-711l-9-29h110v-98l93 11c-3 14-11 23-35 27v60h76l31-33 67 52c-5 7-19 14-34 16v98h12l29-49s37 37 57 63c-10 29-64 11-98 16v147c-2 7-34 23-56 20v-29h-84v108h68l38-52s43 37 70 65c-3 11-12 16-26 16H728v100h89l40-54s46 39 73 68c-3 11-13 16-25 16H728v115c-1 10-33 25-58 22v-137H533l-8-30h145v-100H565l-8-29h113v-108h-96l-9-30h105v-108H517l-8-30h161v-104H569zM334-160l10 12c-27 30-83 96-145 160-2 13-8 22-13 27l-62-60c27-23 33-29 33-45v-247H47l-8-30h118v-160H95l-7-28c-14 23-28 44-42 63l-14-8c44-92 93-269 110-371l99 29c-3 12-12 20-36 21-8 25-18 55-29 84h60l39-48s44 34 73 62c-2 11-12 16-25 16H163c-21 51-47 104-74 150h138l38-49s43 35 70 63c-2 11-12 16-26 16h-93v160h25l38-46s41 34 66 60c-2 11-11 16-25 16H216v237c35-25 76-55 118-84zM812-7h162V6c-24 5-37 26-39 51-228 5-402 0-497-147-39 65-97 122-181 167l-9-15C327 9 378-58 410-137c-25-48-47-110-65-185l16-7c18 64 39 114 63 156 25-73 37-152 43-234h-59l-26 24-60-46c8-6 21-12 34-17 29-71 68-187 91-263H346l-9-30h106l35-36 73 65c-9 9-27 14-48 15-21 69-61 181-92 259h49l36-37 66 60c-6 8-16 11-36 14-11 97-28 190-68 273C537-32 649-7 812-7" id="bD"/><use transform="matrix(0.021333333333333336,0,0,0.021333333333333336,0,0)" xlink:href="#bD" id="q"/><path fill="#161209" d="M420-672l11-10c185 43 139 170 75 129-10-40-51-92-86-119zm-113-28c-1 57 2 115-2 169h414v-169H307zm374 437c-7-57-36-59-101-70v-16s97 7 117 7c17 0 22-6 22-21v-139H302c-15 110-72 203-239 264l-11-14c129-62 174-150 187-250H59l-9-29h192c2-75 0-153 1-230l76 32h97c10-32 23-79 32-111l107 24c-4 13-18 21-38 21-16 19-40 44-61 66h253l33-40 84 62c-6 8-22 16-42 20v156h51l47-60s52 42 84 73c-3 11-13 16-26 16H784v148c0 50-11 82-103 91zM399-472l10-8c198 53 152 185 87 142-12-45-59-102-97-134zM235-197V14h134v-211H235zm330 0H431V14h134v-211zm196 0H627V14h134v-211zm89 211l39-54s47 39 74 68c-3 11-12 16-25 16H53l-8-30h127v-273l76 32h506l33-33 69 52c-4 6-17 12-30 15V14h24" id="bE"/><use transform="matrix(0.021333333333333336,0,0,0.021333333333333336,0,0)" xlink:href="#bE" id="r"/><path fill="#161209" d="M162 76c-9-56-30-61-96-71v-16c11-7 130 28 130-14v-284c-35 18-73 36-113 55-4 11-12 22-21 26l-35-85c34-8 95-26 169-50v-217H50l-7-30h153v-228l99 11c-2 14-12 24-36 27v190h41l42-57s48 41 76 71c-2 11-12 16-25 16H259v196c48-16 100-34 152-52l6 15c-43 22-96 50-158 81v321c0 54-11 85-97 95zM520-25h309v-137H520v137zm309-301H520v134h309v-134zm-10-29l37-39 80 61c-7 8-23 16-43 20V50c-2 8-39 25-64 22V5H520v52c1 8-34 25-63 22v-465l68 31h294zm105-265l3 100c25 7 31 14 31 27 0 33-35 41-242 41H565c-94 0-114-13-114-68v-315l92 11c-2 13-11 21-30 24v165c122-41 251-106 318-157l83 62c-8 10-24 11-48 3-85 41-220 89-353 115v80c0 18 6 23 58 23 75-1 231 2 285-2 15-1 20-3 25-11 8-14 20-51 30-98h13" id="bF"/><use transform="matrix(0.021333333333333336,0,0,0.021333333333333336,0,0)" xlink:href="#bF" id="s"/><path fill="#161209" d="M729-353l49-43 78 75c-9 8-22 10-46 11-63 62-182 161-270 231 142 92 121 182 55 156-53-79-192-183-290-239l9-11c88 25 155 54 205 82 65-68 149-166 200-232H159l-9-30h579zM415-576l11-7c205 79 148 216 83 166-11-53-56-120-94-159zm41-272l126 32c-3 11-16 16-41 18 92 128 262 236 436 309l-1 14c-35 7-58 33-66 60-162-86-315-223-387-370-99 146-301 317-489 407l-8-14c167-99 375-312 430-456" id="bG"/><path fill="#161209" d="M164-302c0 180 39 311 169 500l-21 17C15-66 15-539 312-820l21 18C202-612 164-483 164-302" id="bH"/><g id="t"><use transform="matrix(0.021333333333333336,0,0,0.021333333333333336,0,0)" xlink:href="#bG"/><use transform="matrix(0.021333333333333336,0,0,0.021333333333333336,21.333333333333336,0)" xlink:href="#bH"/></g><path fill="#161209" d="M112-643l18 1c27 103 11 185-13 223-17 25-53 36-69 16-12-18-4-41 13-58 27-32 54-112 51-182zm79-196l100 12c-3 14-11 24-36 28V53c-1 12-36 29-64 25v-917zm83 177l13-5c151 99 87 216 34 165 0-51-24-119-47-160zm503 53H624c-1 91-3 172-13 244h166v-244zm172 274H633C665-203 750-84 975-9l-1 12c-33 5-54 16-61 52-211-89-275-242-299-390h-7C578-153 499-29 283 57l-12-19c178-86 247-204 273-373H302l-8-30h254c9-72 11-153 12-244H382l-8-29h186c0-59-1-122-1-190l101 11c-3 14-12 26-35 29 0 53 0 102-1 150h143l36-39 78 60c-7 8-23 16-43 20v232h21l41-59s47 43 74 73c-3 11-12 16-25 16" id="bI"/><use transform="matrix(0.021333333333333336,0,0,0.021333333333333336,0,0)" xlink:href="#bI" id="u"/><path fill="#161209" d="M149 78c-8-57-30-62-94-72v-17c12-7 127 30 127-13v-285c-31 16-64 33-100 51-3 12-11 22-20 26l-37-83c31-8 88-26 157-48v-217H49l-7-30h140v-228l100 11c-3 14-13 24-37 27v190h22l40-56s46 41 73 70c-2 11-11 16-25 16H245v196c36-12 73-24 110-37l4 15c-32 17-70 38-114 63v325c0 54-10 86-96 96zm500-536v103h145v-103H649zm0-126v96h145v-96H649zm0 411v150c91 10 215 5 322 5v14c-23 4-35 25-35 51H758c-163 0-258-35-320-176-37 94-93 163-168 207l-13-12c80-78 134-194 149-346l99 20c-3 13-14 22-36 23-6 29-13 57-22 82 34 64 78 100 138 118v-289H384l-8-29h209v-103H325l-8-30h268v-96H396l-9-29h198v-86H342l-8-29h251v-107l97 10c-2 14-10 24-33 27v70h169l47-60s53 43 86 74c-3 10-13 15-27 15H649v86h136l34-36 73 57c-6 6-20 14-36 17v87h11l37-51s43 37 68 65c-2 11-11 16-24 16h-92v151c-2 7-38 24-62 21v-40H649v124h117l45-54s52 39 83 67c-3 11-12 16-25 16H649" id="bJ"/><use transform="matrix(0.021333333333333336,0,0,0.021333333333333336,0,0)" xlink:href="#bJ" id="v"/><path fill="#161209" d="M197-302c0-181-39-311-169-500l21-18C346-539 346-66 49 215l-21-17C159 8 197-122 197-302" id="bK"/><g id="w"><use transform="matrix(0.021333333333333336,0,0,0.021333333333333336,0,0)" xlink:href="#bD"/><use transform="matrix(0.021333333333333336,0,0,0.021333333333333336,21.333333333333336,0)" xlink:href="#bK"/></g><filter id="n" filterUnits="objectBoundingBox" x="-.03" y="-.04" width="1.06" height="1.21"><feOffset result="offOut" in="SourceAlpha" dy="6"/><feGaussianBlur result="blurOut" in="offOut" stdDeviation="5"/><feColorMatrix result="colorOut" in="blurOut" values="0 0 0 0 0 0 0 0 0 0 0 0 0 0 0 0 0 0 0.5019607843137255 0"/><feBlend in="SourceGraphic" in2="colorOut"/></filter><path fill="#333" d="M399-800v445c-1 10-36 27-63 23v-505l100 11c-3 13-12 23-37 26zm-195 84v325c-1 10-35 27-62 23v-385l99 11c-2 14-11 22-37 26zm6 456V10h145v-270H210zm358 0H417V10h151v-270zm207 0H630V10h145v-270zm70 270l40-54s46 39 73 68c-2 11-12 16-25 16H52l-9-30h103v-333l76 33h546l34-34 68 53c-5 6-17 12-31 16V10h6zM639-572l11-7c211 94 146 247 79 190-4-61-49-136-90-183zm196-95l44-59s52 42 84 73c-2 11-13 16-26 16H586c-41 90-89 173-141 234l-16-9c59-106 117-271 152-427l100 30c-4 11-14 19-37 19-14 42-29 83-45 123h236" id="bL"/><use transform="matrix(0.021333333333333336,0,0,0.021333333333333336,0,0)" xlink:href="#bL" id="x"/><path fill="#333" d="M290-692H140v396h150v-396zm0 424H140v129c1 10-33 25-62 22v-636l67 32h135l35-41 80 62c-7 8-22 16-42 20v481c-2 8-38 26-63 23v-92zm548-226l46-58s52 41 84 71c-3 11-13 16-26 16H784V56c3 5-34 24-67 20v-541H521c1 199-22 399-248 536l-13-12c244-204 192-455 198-822l70 31c115-26 240-69 307-105l79 70c-9 8-28 8-50-1-86 26-217 50-343 60v214h317" id="bM"/><use transform="matrix(0.021333333333333336,0,0,0.021333333333333336,0,0)" xlink:href="#bM" id="y"/><path fill="#333" d="M223-456c7 38-15 38-63 43v-372l76 29c64-26 132-60 171-83l71 59c-9 8-25 9-47 1-52 17-134 40-208 53v99h143l43-53s48 38 78 67c-3 11-12 16-26 16H223v111h532v-112H543l-9-29h221v-110H523l-9-30h231l36-39 79 61c-6 8-22 16-41 20v285c-2 7-39 24-64 21v-37H223zm327 100l10-9c190 38 153 153 96 118-17-37-66-84-106-109zm-7 133l10-9c198 49 159 167 100 131-16-41-68-93-110-122zM394-64l5 15C358-26 276 18 190 59c-4 11-11 18-17 22l-47-71c28-17 33-23 33-39v-375l89 10c-2 11-10 20-30 23v359c51-14 114-33 176-52zM243-216l10-10c187 38 151 152 94 119-16-38-65-85-104-109zm8-135l9-11c186 25 154 136 96 106-18-33-67-74-105-95zM731-71l4 16C683-34 587 7 483 43c-4 12-12 20-19 24L417-4c29-17 33-24 33-38v-366l89 11c-2 11-10 20-29 23v352c61-13 141-31 221-49zm218-7l-10 90c18 17 26 35 20 47-12 27-54 19-89 3C734-1 726-221 724-408l97 10c-2 13-11 23-30 26-1 129 4 319 99 366 11 5 16 5 21-6 8-16 19-46 26-69" id="bN"/><use transform="matrix(0.021333333333333336,0,0,0.021333333333333336,0,0)" xlink:href="#bN" id="z"/><path fill="#333" d="M878-713H427l-8-30h359l44-55s51 39 81 69c-2 11-13 16-25 16zM249-577v95c191 91 133 221 71 171-8-47-40-104-71-147V51c-1 13-36 29-63 25v-465c-36 94-85 179-148 253l-14-12c73-120 120-276 144-429H52l-8-30h142v-231l98 11c-1 15-9 25-35 29v191h35l44-57s49 41 80 71c-2 11-12 16-26 16H249zm205 191l100 35c-4 11-13 17-38 15-35 99-99 236-196 326l-12-13c74-99 126-256 146-363zM576 74c-11-57-32-59-103-71v-15s98 8 118 8c18 0 22-6 22-20v-454H370l-8-30h465l47-58s53 41 85 72c-3 11-12 16-26 16H678v456c0 51-13 87-102 96zm167-442l14-7C1027-163 976 31 901-35c-14-104-95-244-158-333" id="bO"/><path fill="#333" d="M3 174l290-946h52L54 174H3" id="bP"/><g id="A"><use transform="matrix(0.021333333333333336,0,0,0.021333333333333336,0,0)" xlink:href="#bO"/><use transform="matrix(0.021333333333333336,0,0,0.021333333333333336,21.333333333333336,0)" xlink:href="#bP"/></g><path fill="#333" d="M309-239h86v-144h-86v144zm-139 0h85v-144h-81c0 45 0 92-4 144zm169-468H215c-20 41-44 80-70 114l41 19h89c22-37 48-92 64-133zM174-545v133h81v-133h-81zm221 0h-86v133h86v-133zM376 74c-4-41-17-53-62-59V-1c8-5 89 21 81-13v-196h-86V4c1 5-27 21-54 18v-232h-88C156-110 129-6 59 77L44 66c92-188 68-386 72-621-20 23-40 43-61 61l-14-10c63-79 122-204 155-336l93 29c-4 12-15 21-37 20-7 19-15 36-23 54h111l37-38 69 65c-7 7-20 8-38 9-27 35-68 91-108 127h85l31-40 82 61c-7 8-24 16-44 21V-8c0 49-9 76-78 82zm201-388h110v-259H577v259zm285-259H748v259h114v-259zm-51 375l14-6c201 171 144 328 82 268-3-35-13-73-27-113-81 21-190 47-337 78-5 12-15 19-25 21l-35-82c42-2 116-8 204-16v-237H577c2 51 8 73-57 71v-418l69 30h98v-220l97 11c-2 14-11 25-36 29v180h111l30-36 68 53c-5 8-15 13-36 17v318c1 4-33 20-59 17v-52H748v231c41-4 83-9 126-13-18-48-42-95-63-131" id="bQ"/><use transform="matrix(0.021333333333333336,0,0,0.021333333333333336,0,0)" xlink:href="#bQ" id="B"/><path fill="#333" d="M560-831l11-7c189 67 129 203 66 151-4-48-42-108-77-144zm294 192H445c4 48-5 86-20 105-16 20-50 26-65 5-10-19 0-41 18-57 21-23 40-82 35-128h17c5 15 9 30 11 45h410l41-41 74 72c-7 7-19 9-38 10-23 30-66 85-92 113l-14-5c8-29 22-80 32-119zm-171 57l11-8c275 116 240 266 164 222-32-65-116-158-175-214zM373-333l-11-13c65-56 138-151 186-256l89 46c-6 10-20 16-40 12-61 92-144 167-224 211zM144 76c-9-61-34-64-105-76v-16s100 7 119 7 24-5 24-21v-283c-31 17-62 35-97 53-2 13-10 23-19 27l-38-81c31-9 88-29 154-55v-213H48l-8-30h142v-227l100 11c-3 15-13 25-37 28v188h24l40-55s48 39 76 69c-2 11-12 16-25 16H245v189c44-18 92-38 138-58l6 13c-39 25-88 55-144 88v328c0 54-10 88-101 98zM830 9l47-59s54 41 88 73c-3 11-13 16-27 16H338l-8-30h282v-290H415l-8-30h367l46-59s55 41 87 73c-2 11-12 16-25 16H677V9h153" id="bR"/><use transform="matrix(0.021333333333333336,0,0,0.021333333333333336,0,0)" xlink:href="#bR" id="C"/><path fill="#333" d="M271-576v94c198 88 144 214 82 167-11-46-48-105-82-145V55c-1 13-35 30-62 26v-482c-39 96-91 182-159 258l-15-13c79-118 131-269 158-420H52l-8-29h165v-238l98 12c-3 15-10 24-36 28v198h41l43-57s50 40 79 70c-2 11-13 16-26 16H271zm543 82H581c23 126 63 228 121 307 56-91 92-194 112-307zm36-70l73 66c-7 9-17 12-39 14-28 126-71 243-146 342C801-75 878-27 970 4l-1 12c-32 9-57 30-63 61-85-38-154-96-208-172C632-24 545 36 429 79l-10-15C527 12 608-57 669-138c-54-93-91-211-111-356h-41c0 184-12 411-177 572l-15-11c163-239 123-499 129-835l64 28c102-19 234-52 347-92l62 72c-10 7-21 8-36-1-114 25-267 41-374 44v194h291" id="bS"/><use transform="matrix(0.021333333333333336,0,0,0.021333333333333336,0,0)" xlink:href="#bS" id="D"/><path fill="#333" d="M162 76c-9-56-30-61-96-71v-16c11-7 130 28 130-14v-284c-35 18-73 36-113 55-4 11-12 22-21 26l-35-85c34-8 95-26 169-50v-217H50l-7-30h153v-228l99 11c-2 14-12 24-36 27v190h41l42-57s48 41 76 71c-2 11-12 16-25 16H259v196c48-16 100-34 152-52l6 15c-43 22-96 50-158 81v321c0 54-11 85-97 95zM520-25h309v-137H520v137zm309-301H520v134h309v-134zm-10-29l37-39 80 61c-7 8-23 16-43 20V50c-2 8-39 25-64 22V5H520v52c1 8-34 25-63 22v-465l68 31h294zm105-265l3 100c25 7 31 14 31 27 0 33-35 41-242 41H565c-94 0-114-13-114-68v-315l92 11c-2 13-11 21-30 24v165c122-41 251-106 318-157l83 62c-8 10-24 11-48 3-85 41-220 89-353 115v80c0 18 6 23 58 23 75-1 231 2 285-2 15-1 20-3 25-11 8-14 20-51 30-98h13" id="bT"/><use transform="matrix(0.021333333333333336,0,0,0.021333333333333336,0,0)" xlink:href="#bT" id="E"/><path fill="#333" d="M729-353l49-43 78 75c-9 8-22 10-46 11-63 62-182 161-270 231 142 92 121 182 55 156-53-79-192-183-290-239l9-11c88 25 155 54 205 82 65-68 149-166 200-232H159l-9-30h579zM415-576l11-7c205 79 148 216 83 166-11-53-56-120-94-159zm41-272l126 32c-3 11-16 16-41 18 92 128 262 236 436 309l-1 14c-35 7-58 33-66 60-162-86-315-223-387-370-99 146-301 317-489 407l-8-14c167-99 375-312 430-456" id="bU"/><use transform="matrix(0.021333333333333336,0,0,0.021333333333333336,0,0)" xlink:href="#bU" id="F"/><path fill="#333" d="M752-729v35l-95 12-2 392C655-74 553 16 401 16c-155 0-260-87-260-291 0-137 1-274-2-409l-93-10v-35h294v35l-113 12c-1 124-1 255-1 383 0 188 73 251 188 251 133 0 197-74 197-270l-1-362-118-14v-35h260" id="bV"/><path fill="#333" d="M140-571c0 88 85 132 170 163 149 55 200 119 200 220C510-61 403 16 257 16 175 16 97-11 49-42l5-150h52l23 132c38 22 72 31 123 31 109 0 182-49 182-142 0-72-41-111-146-150C170-365 64-431 64-550c0-125 104-196 236-196 74 0 128 22 176 57l-5 140h-53l-24-127c-96-57-254-16-254 105" id="bW"/><path fill="#333" d="M245-41h81c139 0 210-56 210-157 0-104-68-160-224-160h-70c0 117 0 219 3 317zm81-647h-81c-3 94-3 190-3 290h63c136 0 199-50 199-152 0-97-56-138-178-138zM52-729h301c152 0 235 71 235 176 0 78-50 147-171 173 146 19 208 91 208 182C625-97 544 0 346 0H52v-36l104-11c4-210 4-425 0-636L52-694v-35" id="bX"/><g id="G"><use transform="matrix(0.021333333333333336,0,0,0.021333333333333336,0,0)" xlink:href="#bM"/><use transform="matrix(0.021333333333333336,0,0,0.021333333333333336,21.333333333333336,0)" xlink:href="#bV"/><use transform="matrix(0.021333333333333336,0,0,0.021333333333333336,38.22933333333334,0)" xlink:href="#bW"/><use transform="matrix(0.021333333333333336,0,0,0.021333333333333336,49.89866666666667,0)" xlink:href="#bX"/></g><path fill="#333" d="M152-88h209v-264H152v264zm209-543H152v250h209v-250zm27-71l78 63c-5 8-22 16-42 20V-6c-2 8-38 28-63 24v-77H152v83c1 9-33 27-62 23v-741c33 11 51 38 100 33 13-51 29-125 38-177l105 25c-5 14-17 22-37 22-20 37-49 89-73 130h128zM725 76c1-70-52-64-118-81l1-18c45 5 117 11 141 11 21 0 28-2 39-13 37-37 52-265 59-607H603c-42 83-92 156-146 210l-15-9c65-98 127-253 161-407l102 31c-4 11-15 21-37 20-15 43-32 84-50 125h218l41-44 77 67c-7 8-19 14-41 16-7 370-25 592-72 650-28 34-67 49-116 49zM534-448l11-7c240 109 182 271 110 214-12-68-71-154-121-207" id="bY"/><use transform="matrix(0.021333333333333336,0,0,0.021333333333333336,0,0)" xlink:href="#bY" id="H"/><path fill="#333" d="M149 77c-9-55-29-61-94-70v-17c12-7 127 30 127-13v-293c-27 14-56 28-87 43-3 12-11 21-21 25l-38-84c30-7 82-22 146-40v-221H47l-7-30h142v-215l99 11c-3 14-13 24-37 27v177h36l40-57s47 42 74 71c-1 7-6 12-12 14h238v-125c-80 13-164 24-243 30l-4-18c166-27 372-83 479-128l73 65c-9 9-27 9-51-1-53 14-119 29-190 41v136h147l47-59s54 41 86 72c-3 11-11 16-25 16H684v534h175v-177H734l-9-29h134v-173H729l-9-29h130l35-38 74 59c-5 7-19 15-37 18V46c-2 7-38 25-63 22V-2H437c2 55 10 77-61 77v-534l78 24c36-26 77-58 96-77l62 61c-6 5-15 6-28 0-32 13-93 34-147 46v167h48l37-49s40 36 64 63c-2 11-11 15-24 15H437v177h183v-534H361l-7-27H244v203c38-11 78-24 118-36l4 13c-33 19-73 41-122 66v330c0 53-10 85-95 94" id="bZ"/><use transform="matrix(0.021333333333333336,0,0,0.021333333333333336,0,0)" xlink:href="#bZ" id="I"/><path fill="#333" d="M473-670c11-68-85-75-169-110 9-14 29-49 38-61 78 43 153 88 165 141C559-385 723-109 976 9l-4 14c-38 0-71 24-82 54C706-33 577-249 507-509 436-274 272-57 49 79L35 65C250-94 421-352 473-670" id="ca"/><path fill="#333" d="M39-156l11-17c120 38 183 89 216 137 18 26 24 45 24 67 0 29-17 45-41 45-21 0-34-12-48-42-32-66-73-127-162-190" id="cb"/><path fill="#333" d="M1035-729v35l-96 13L755 8h-39L525-583 342 8h-38L109-684l-94-10v-35h284v35l-103 12 144 542 174-542-110-12v-35h283v35l-111 13 171 545 144-544-104-14v-35h248" id="cc"/><path fill="#333" d="M164-663c-35 0-63-25-63-61 0-37 28-61 63-61 36 0 64 24 64 61 0 36-28 61-64 61zm42 618l79 13V0H41v-32l86-13c2-128 4-270 0-391l-92-6v-33l157-52 15 10c-4 156-4 312-1 472" id="cd"/><path fill="#333" d="M37-505l97-12c7-117 28-185 76-235 44-49 98-65 145-65 48 0 88 17 99 53-2 24-22 42-56 42-37 3-78-33-104-54-18 9-35 24-47 44-27 40-43 101-40 218h157v46H209c0 142-1 283 2 423l102 13V0H38v-32l93-13c3-140 2-281 2-423H37v-37" id="ce"/><g id="J"><use transform="matrix(0.021333333333333336,0,0,0.021333333333333336,0,0)" xlink:href="#ca"/><use transform="matrix(0.021333333333333336,0,0,0.021333333333333336,21.333333333333336,0)" xlink:href="#cb"/><use transform="matrix(0.021333333333333336,0,0,0.021333333333333336,42.66666666666667,0)" xlink:href="#cc"/><use transform="matrix(0.021333333333333336,0,0,0.021333333333333336,65.45066666666668,0)" xlink:href="#cd"/><use transform="matrix(0.021333333333333336,0,0,0.021333333333333336,72.38400000000001,0)" xlink:href="#ce"/><use transform="matrix(0.021333333333333336,0,0,0.021333333333333336,80.59733333333335,0)" xlink:href="#cd"/></g><path fill="#333" d="M295-255h308v-154H427l-35 33-69-60c12-7 31-14 48-19 26-52 61-127 92-197H315l-8-30h167c24-57 46-111 58-149l93 34c-6 10-17 19-41 15-11 28-25 63-40 100h247l47-60s53 42 87 74c-3 11-12 16-27 16H531c-33 72-69 153-98 213h170v-140l101 11c-2 14-11 24-37 28v101h99l45-58s53 41 85 72c-3 11-12 16-25 16H667v154h146l47-60s53 42 86 73c-3 11-12 16-27 16H667v169c0 10-37 24-64 21v-190H303zM80-814l13-6c216 119 165 265 97 213-15-65-68-152-110-207zm153 365v323c4 3 7 6 12 10C337-19 449-1 636-1c116 0 210 1 329-4V8c-29 5-45 25-50 53H616C424 61 325 28 230-89c-13-15-22-12-31 0C178-57 128 12 98 58c4 8 2 16-4 23L35 9c39-30 96-85 136-117v-351H49l-5-30h113l39-50 85 71c-6 8-21 15-48 19" id="cf"/><use transform="matrix(0.021333333333333336,0,0,0.021333333333333336,0,0)" xlink:href="#cf" id="K"/><path fill="#333" d="M555-835l11-7c175 47 118 173 57 127-4-42-36-92-68-120zm363 163H377l-8-30h456l42-52s47 37 77 66c-2 11-12 16-26 16zm-458 25l12-6c169 91 107 211 51 159-4-49-37-113-63-153zM148 76c-7-58-31-65-95-75v-16c11-7 129 27 129-13v-286c-31 18-63 37-99 56-2 12-10 22-19 26l-38-81c31-9 88-30 156-56v-213H46l-8-30h144v-227l100 11c-3 15-13 25-37 28v188h30l40-55s47 39 75 69c-3 11-12 16-25 16H245v188c40-14 80-31 122-48l-8-30h315c26-53 54-125 71-180l100 28c-4 12-17 20-38 20-25 39-64 91-105 132h125l46-55s50 39 82 69c-3 11-12 16-27 16H370l4 13c-34 20-78 47-129 78v329c0 55-10 89-97 98zm600-359H557c-25 47-54 98-79 137 67 15 126 31 175 45 45-49 76-108 95-182zm83-29l44-57s52 40 83 70c-3 11-12 16-25 16H822c-23 83-56 149-108 202C1001 20 922 111 857 69 808 37 746-3 667-40 585 21 469 58 302 81l-5-18C437 34 539-6 613-63c-64-27-133-52-208-76 23-33 53-89 82-144H322l-8-29h187c22-44 40-86 50-113l96 27c-4 12-13 21-41 20-9 19-21 41-34 66h259" id="cg"/><use transform="matrix(0.021333333333333336,0,0,0.021333333333333336,0,0)" xlink:href="#cg" id="L"/><path fill="#333" d="M427-832l11-7c196 46 135 190 66 138-6-44-41-99-77-131zm410 182H183c1 65-27 108-57 126-25 18-64 17-76-8-9-23 6-44 29-57 39-21 78-78 73-142l17-1c6 19 10 35 12 52h654l43-44 80 76c-8 8-18 9-38 10-26 32-74 75-111 100l-13-8c13-27 30-70 41-104zM532-265v247C653 0 819-8 964-9V5c-26 5-40 26-42 53H705c-231 0-358-42-439-241C224-82 155 14 46 79L35 67C170-42 230-224 249-381l103 22c-4 15-16 22-37 23-9 42-22 86-39 129 45 96 106 148 191 174v-446H167l-8-30h553l47-54s54 38 87 68c-3 11-13 16-26 16H532v184h175l46-58s55 40 87 72c-2 11-12 16-25 16H532" id="ch"/><use transform="matrix(0.021333333333333336,0,0,0.021333333333333336,0,0)" xlink:href="#ch" id="M"/><path fill="#333" d="M143-167h156v-260H143v260zm156-551H143v262h156v-262zm27-71l78 63c-6 8-22 16-42 20v631c-2 8-37 27-63 24v-87H143v112c2 6-31 26-62 22v-775l75 31h133zM673 77c-15-65-49-60-134-76v-15S672-4 696-4c23 0 30-7 30-25v-535H392l-7-30h341v-233l102 12c-2 14-12 24-36 27v194h45l48-64s53 45 85 78c-3 11-12 16-26 16H792v540c0 55-13 91-119 101zM438-440l13-7c241 129 175 311 103 246-3-80-62-178-116-239" id="ci"/><use transform="matrix(0.021333333333333336,0,0,0.021333333333333336,0,0)" xlink:href="#ci" id="N"/><path fill="#333" d="M259-838l103 33c-4 11-17 19-39 18-27 75-59 147-96 213l41 15c-3 9-13 16-31 19V55c-1 8-36 26-65 22v-558c-39 59-80 111-124 154l-14-10c86-121 175-311 225-501zm681 473H642V6h162l50-61s54 43 88 75c-3 11-12 16-26 16H318l-8-30h266v-371H296l-7-29h287v-288c-82 15-167 27-249 35l-4-18c171-33 383-99 491-149l81 70c-9 9-27 9-52 0-56 16-126 33-201 49v301h187l48-62s55 44 88 76c-3 10-12 15-25 15" id="cj"/><use transform="matrix(0.021333333333333336,0,0,0.021333333333333336,0,0)" xlink:href="#cj" id="O"/><path fill="#333" d="M624 70c1-62-55-60-119-73l1-17c72 2 141 22 181 1 22-19 41-108 51-231H491C444-101 332 16 63 79l-7-14C277-4 377-115 419-250H123l-9-30h313c11-42 17-88 19-135l109 15c-3 17-16 24-37 25-4 33-10 64-18 95h229l39-40 76 64c-7 7-20 12-40 14C793-94 769 8 728 40c-25 20-61 30-104 30zm66-769H351c-8 9-16 19-24 28 46 58 109 104 184 141 73-49 133-105 179-169zm58-72l73 71c-8 9-20 11-46 13-53 71-121 132-202 183 115 44 250 68 394 79l-1 12c-30 6-50 27-58 61-151-22-284-59-393-118-128 68-285 114-468 138l-6-16c160-34 305-85 424-154-61-40-113-92-153-153-66 70-144 133-226 176l-11-12c114-81 226-226 280-353l107 31c-4 11-13 15-39 12-14 24-30 48-48 72h322" id="ck"/><use transform="matrix(0.021333333333333336,0,0,0.021333333333333336,0,0)" xlink:href="#ck" id="P"/><path fill="#333" d="M769 0v-106h94V0h-94zM453 0v-106h94V0h-94zM136 0v-106h94V0h-94" id="cl"/><g id="Q"><use transform="matrix(0.021333333333333336,0,0,0.021333333333333336,0,0)" xlink:href="#cl"/><use transform="matrix(0.021333333333333336,0,0,0.021333333333333336,21.333333333333336,0)" xlink:href="#cl"/></g><path d="M721-765l11-8c182 50 129 171 69 128-10-41-47-91-80-120zM202-160h16c22 126-40 197-87 223-28 17-65 20-75-2-9-20 5-38 25-50 53-22 115-85 121-171zm148 13l14-5c148 133 74 269 18 205 8-64-10-146-32-200zm192-3l13-7C752-36 691 112 628 55c-4-66-48-151-86-205zm187-3l12-9C1010-51 968 116 893 66 871-6 791-99 729-153zm203-400H691c38 162 131 265 273 322l-1 10c-28 4-50 24-61 56-129-76-196-192-228-371-28 152-107 279-348 371l-13-17c209-96 279-219 302-371H485l-7-26C405-394 279-229 56-128l-11-13c212-122 339-321 395-537H261c-12 21-24 42-37 62 171 30 143 144 83 113-13-33-55-72-94-96-23 34-48 65-74 93 178 50 140 170 80 132-10-40-53-89-91-119-26 27-53 50-81 71l-12-12c87-92 173-243 220-407l97 33c-5 12-17 20-39 18-11 29-24 57-37 84h161l41-41 71 65c-8 9-18 12-40 13-9 29-18 58-29 86h139c8-72 8-150 8-234l96 10c-2 13-10 22-32 25-2 70-3 136-10 199h145l46-59s54 41 86 73c-3 11-12 16-26 16" id="cm"/><use transform="matrix(0.018,0,0,0.018,0,0)" xlink:href="#cm" id="S"/><path d="M382-34h393v-277H382v277zm390-306l32-39 73 56c-6 8-16 13-37 17V51c1 5-35 22-65 19V-5H382c0 58 13 87-63 85v-452l75 32h378zm44-201l51-64s58 44 93 76c-3 11-12 16-26 16H234c1 210-3 416-183 583L38 59c167-230 125-476 131-805l86 29c187-29 403-80 521-122l75 70c-10 9-27 9-53-1-146 31-365 64-564 77v152h582" id="cn"/><use transform="matrix(0.018,0,0,0.018,0,0)" xlink:href="#cn" id="T"/><path d="M309-239h86v-144h-86v144zm-139 0h85v-144h-81c0 45 0 92-4 144zm169-468H215c-20 41-44 80-70 114l41 19h89c22-37 48-92 64-133zM174-545v133h81v-133h-81zm221 0h-86v133h86v-133zM376 74c-4-41-17-53-62-59V-1c8-5 89 21 81-13v-196h-86V4c1 5-27 21-54 18v-232h-88C156-110 129-6 59 77L44 66c92-188 68-386 72-621-20 23-40 43-61 61l-14-10c63-79 122-204 155-336l93 29c-4 12-15 21-37 20-7 19-15 36-23 54h111l37-38 69 65c-7 7-20 8-38 9-27 35-68 91-108 127h85l31-40 82 61c-7 8-24 16-44 21V-8c0 49-9 76-78 82zm201-388h110v-259H577v259zm285-259H748v259h114v-259zm-51 375l14-6c201 171 144 328 82 268-3-35-13-73-27-113-81 21-190 47-337 78-5 12-15 19-25 21l-35-82c42-2 116-8 204-16v-237H577c2 51 8 73-57 71v-418l69 30h98v-220l97 11c-2 14-11 25-36 29v180h111l30-36 68 53c-5 8-15 13-36 17v318c1 4-33 20-59 17v-52H748v231c41-4 83-9 126-13-18-48-42-95-63-131" id="co"/><use transform="matrix(0.018,0,0,0.018,0,0)" xlink:href="#co" id="U"/><path d="M614-801l11-8c234 74 184 223 111 175-17-56-75-125-122-167zM383-392l-6 15c27 78 81 155 184 225 68-67 118-148 152-240H383zm374-70l73 68c-8 9-19 11-43 13-42 101-100 188-179 260 87 49 202 94 355 131l-2 13c-37 3-62 14-70 50C745 29 639-25 561-83 461-8 331 47 164 79l-7-16C307 22 427-37 520-115c-87-76-130-156-155-236C295-198 193-64 44 30L31 20c172-135 276-340 335-562H195l-35 35-75-60c12-6 29-13 45-19 24-60 54-151 67-198l100 36c-5 12-17 20-41 16-13 44-38 112-58 161h175c23-90 39-183 48-275l106 20c-4 16-17 24-38 26-11 77-26 154-47 229h371l48-60s55 42 89 73c-3 11-14 16-27 16H434c-11 40-24 81-39 120h318" id="cp"/><path d="M769 0v-106h94V0h-94zM453 0v-106h94V0h-94zM136 0v-106h94V0h-94" id="cq"/><g id="V"><use transform="matrix(0.018,0,0,0.018,0,0)" xlink:href="#cp"/><use transform="matrix(0.018,0,0,0.018,18,0)" xlink:href="#cq"/><use transform="matrix(0.018,0,0,0.018,36,0)" xlink:href="#cq"/></g><filter id="R" filterUnits="objectBoundingBox" x="-.08" y="-.03" width="1.17" height="1.17"><feOffset result="offOut" in="SourceAlpha" dy="6"/><feGaussianBlur result="blurOut" in="offOut" stdDeviation="5"/><feColorMatrix result="colorOut" in="blurOut" values="0 0 0 0 0 0 0 0 0 0 0 0 0 0 0 0 0 0 0.5019607843137255 0"/><feBlend in="SourceGraphic" in2="colorOut"/></filter><path fill="#333" d="M178 76C165 13 138 12 60-2v-16s114 9 137 9c19 0 25-6 25-23v-282c-42 21-88 42-138 65-3 11-11 22-20 26l-36-84c38-10 109-32 194-61v-212H54l-7-30h175v-229l101 11c-3 15-13 25-36 28v190h56l42-55s48 40 76 69c-2 11-10 16-24 16H287v190c57-19 117-40 178-62l5 15c-50 25-111 56-183 91v321c0 56-11 91-109 101zm474-8C637 3 604 5 518-10v-16s132 10 159 10c22 0 28-6 28-23v-652H398l-8-29h444l47-61s54 43 87 75c-3 10-12 15-25 15H771v655c0 54-14 94-119 104" id="cr"/><use transform="matrix(0.021333333333333336,0,0,0.021333333333333336,0,0)" xlink:href="#cr" id="W"/><path fill="#333" d="M372-416h251v-308H372v308zm468 0l47-62s52 44 85 75c-3 11-13 16-27 16H690V53c2 7-33 26-67 22v-462H371C363-202 308-31 50 75L39 62C248-59 297-208 304-387H47l-9-29h267v-308H87l-9-30h708l46-58s53 41 85 72c-3 11-12 16-25 16H690v308h150" id="cs"/><use transform="matrix(0.021333333333333336,0,0,0.021333333333333336,0,0)" xlink:href="#cs" id="X"/><path fill="#333" d="M47-431h730l63-83s73 59 117 101c-3 12-14 16-30 16H57" id="ct"/><use transform="matrix(0.021333333333333336,0,0,0.021333333333333336,0,0)" xlink:href="#ct" id="Y"/><path fill="#333" d="M463-561l105 12c-3 14-12 24-37 27V57c-1 11-39 28-68 24v-642zm45-216C420-627 244-450 42-348l-7-15c178-118 353-316 417-475l115 30c-4 12-14 17-41 20 97 139 253 269 438 348l-1 15c-31 8-50 31-60 58-174-102-316-247-395-410" id="cu"/><use transform="matrix(0.021333333333333336,0,0,0.021333333333333336,0,0)" xlink:href="#cu" id="Z"/><path fill="#333" d="M445-838l10-8c214 53 169 191 99 149-18-46-69-106-109-141zM811-9l47-61s53 43 87 75c-3 11-12 16-27 16H197l-9-30h425c65-170 131-412 162-557l112 38c-4 12-16 15-38 13C807-383 723-173 633-9h178zM281-501l16-6c208 227 146 430 77 356 4-109-46-255-93-350zm181-50l16-6c201 216 141 411 72 340 4-106-44-244-88-334zm358-132l49-63s56 44 91 77c-3 11-13 16-27 16H220v227c0 163-13 366-164 505L41 68c151-218 107-470 115-784l76 33h588" id="cv"/><use transform="matrix(0.021333333333333336,0,0,0.021333333333333336,0,0)" xlink:href="#cv" id="aa"/><path fill="#333" d="M537-293h257v-210H537v210zm-311 0h246v-210H234c0 73 1 137-8 210zm246-444H234v204h238v-204zm322 0H537v204h257v-204zM753 75c-11-61-38-60-112-74v-16s107 9 129 9c19 0 24-7 24-23v-235H537V47c2 6-32 24-65 21v-332H222C205-140 160-17 53 76L39 66c173-229 121-518 130-865l77 32h538l35-44 88 67c-7 9-25 18-47 23v699c0 54-10 87-107 97" id="cw"/><use transform="matrix(0.021333333333333336,0,0,0.021333333333333336,0,0)" xlink:href="#cw" id="ab"/><path fill="#333" d="M823-556H653v117h170v-117zM653-296h170v-114H653v114zm-224 0h163v-114H429v114zm163-260H429v117h163v-117zm63-29c-39-40-104-82-201-117l6-17c95 13 158 33 197 53 36-27 77-61 108-92H362l-9-30h428l43-41 73 71c-8 7-20 9-42 10-40 30-115 69-176 96 39 27 40 53 27 67h107l33-40 81 62c-6 7-22 16-42 20v400c0 51-9 79-90 88-6-51-25-55-82-65v-16c9-6 110 27 110-13v-117H653v164c2 5-31 22-61 19v-183H429v183c0 8-35 23-63 20v-555l68 33h221zM85-815l12-5c226 117 176 265 106 213-17-65-75-152-118-208zm156 356v321c3 2 6 5 10 8C343-33 452-13 639-13c116 0 209-1 327-6v13c-30 7-46 27-50 55H619c-190 0-288-34-383-151-13-15-22-14-32 0C182-71 127-1 95 46c4 8 2 16-5 23L31-6c43-32 109-89 150-119v-344H46l-6-30h126l39-50 84 71c-7 7-21 15-48 19" id="cx"/><use transform="matrix(0.021333333333333336,0,0,0.021333333333333336,0,0)" xlink:href="#cx" id="ac"/><path fill="#333" d="M656-58c-14-62-47-59-127-74v-16s125 10 149 10c22 0 28-7 28-24v-425H335l-8-29h379v-215l100 12c-3 14-13 23-37 27v176h67l45-67s50 47 79 80c-3 11-13 16-27 16H769v431c0 54-11 88-113 98zM401-492l10-10c215 111 160 278 98 221-17-58-47-151-108-211zM93-815l12-7c230 119 183 263 114 214-18-63-80-151-126-207zm162 672C347-39 457-12 646-14c111 0 201 0 316-5v13c-29 6-46 27-50 56H625c-187 0-283-36-376-157-13-15-23-13-33 0C192-76 130-2 94 47c4 8 2 17-6 24L30-6c47-34 120-94 164-125v-343H42l-6-30h143l39-50 85 71c-6 8-20 15-48 19v321" id="cy"/><use transform="matrix(0.021333333333333336,0,0,0.021333333333333336,0,0)" xlink:href="#cy" id="ad"/><path fill="#333" d="M403-690l107 22c-3 13-12 20-40 21-16 70-37 153-68 238 98 157 80 266 29 225-15-42-34-97-57-155-42 96-97 190-169 265l-13-10c65-91 114-208 150-324-35-72-79-144-135-202l11-10c59 52 105 102 142 150 20-77 34-152 43-220zm289 0l106 22c-3 13-11 19-39 20-18 76-44 163-78 252 102 189 77 314 25 265-13-52-31-122-56-195-48 101-109 198-189 275l-13-11c75-94 133-215 173-339-30-75-69-149-119-210l14-9c51 54 92 107 125 158 23-80 40-158 51-228zm83 768c-18-60-52-55-135-71V-8s131 9 157 9c24 0 31-8 31-26v-720H172V51c1 11-33 30-64 26v-885l70 34h640l34-42 82 64c-6 7-22 16-43 20v714c0 52-12 86-116 96" id="cz"/><use transform="matrix(0.021333333333333336,0,0,0.021333333333333336,0,0)" xlink:href="#cz" id="ae"/><path fill="#333" d="M79-207l-36-89s21-4 29-10c52-48 113-133 164-214-42 14-95 31-148 45-5 6-10 9-16 11l-35-87s18-4 25-9c52-58 117-199 140-275l95 42c-4 9-16 18-36 16-38 70-107 167-169 233 41-1 102-5 164-9 25-42 46-83 60-114l89 54c-5 8-18 15-38 11-55 89-161 216-256 305 64-9 159-25 256-41l3 14c-56 21-159 63-270 99-7 9-13 15-21 18zM92 16L48-72c62-12 201-47 334-86l4 14C322-109 232-62 112-9c-4 13-12 21-20 25zm690-702H549c-7 15-15 29-23 42 36 55 80 104 134 147 52-58 93-121 122-189zm-4 427H525v237h253v-237zm48-497l71 66c-8 8-18 11-42 12-38 77-88 149-152 212 72 49 159 87 264 114l-2 11c-27 7-47 23-55 54-100-38-181-86-247-143-53 44-114 84-184 116l58 25h238l33-38 72 56c-7 8-18 13-37 16V49c1 6-36 22-65 19V8H525c4 53 3 68-62 68v-383c-30 13-61 25-94 36l-9-16c105-44 196-105 269-177-47-47-85-100-117-158-37 61-82 114-128 153l-15-10c66-86 128-218 162-359l99 32c-4 12-16 21-37 20-9 24-19 47-29 70h219" id="cA"/><use transform="matrix(0.021333333333333336,0,0,0.021333333333333336,0,0)" xlink:href="#cA" id="af"/><path fill="#333" d="M49-353l-9-16c145-71 275-176 358-285H67l-9-30h408v-151l102 11c-2 14-12 22-37 26v114h276l49-60s55 42 90 74c-3 11-12 16-27 16H569c87 101 252 185 391 226l-2 10c-28 3-48 23-56 54-139-60-285-164-361-290h-10v214c-1 11-38 25-65 22v-209C367-511 218-416 49-353zm250 237h399v-107H299v107zm399-239H299v103h399v-103zm65 296c-2 8-38 27-65 24v-51H299v40c0 7-36 24-64 21v-392l70 33h384l35-38 77 59c-6 7-21 15-38 18v286zm61 69l48-58s55 41 89 72c-2 11-13 16-27 16H49l-9-30h784" id="cB"/><use transform="matrix(0.021333333333333336,0,0,0.021333333333333336,0,0)" xlink:href="#cB" id="ag"/><path fill="#333" d="M137-828l12-7c215 98 163 243 95 194-13-59-66-139-107-187zm248 633l10 13C363-146 299-72 229 1c-4 18-17 30-26 34l-44-80c31-16 36-23 36-41v-453H57l-9-30h148l32-34 66 55c-4 7-17 15-36 19v429c39-28 83-61 127-95zm290-286H485v120h190v-120zM485-203h190v-129H485v129zm190 29H485v55c0 7-34 23-61 20v-441l66 30h175l36-38 78 60c-7 8-23 16-43 20v321c-2 8-37 25-61 22v-49zm56 249c-1-70-57-63-128-80l2-18c48 4 128 12 151 12 22 0 30-3 40-14 37-38 51-281 57-609H482c-46 84-100 158-160 212l-14-10c68-96 137-249 175-401l104 33c-4 12-16 21-38 20-16 40-33 80-52 117h345l40-44 76 66c-6 8-19 13-41 17-6 353-22 592-68 651-28 33-68 48-118 48" id="cC"/><use transform="matrix(0.021333333333333336,0,0,0.021333333333333336,0,0)" xlink:href="#cC" id="ah"/><path fill="#333" d="M775-779l101 45c-5 11-18 18-39 15-55 80-124 162-185 215l-15-9c41-65 97-169 138-266zm-634 14l12-7c261 136 211 303 136 247-19-76-92-178-148-240zm666 251l81 64c-6 8-22 17-43 21V53c-2 8-38 29-65 25V8H102l-8-29h686v-202H163l-9-30h626v-190H108l-9-29h368v-365l103 11c-2 14-12 24-37 28v326h237" id="cD"/><use transform="matrix(0.021333333333333336,0,0,0.021333333333333336,0,0)" xlink:href="#cD" id="ai"/><path fill="#333" d="M928-427H529C567-265 675-97 969 14l-2 12c-36 3-60 15-68 53C622-50 540-253 509-427 478-209 379-41 47 80L36 62C324-63 411-225 438-427H70l-8-29h380c9-80 9-166 10-258H131l-9-30h629l51-63s57 44 94 77c-3 11-14 16-28 16H526c-2 93-4 179-13 258h297l51-64s58 44 95 77c-3 11-14 16-28 16" id="cE"/><use transform="matrix(0.021333333333333336,0,0,0.021333333333333336,0,0)" xlink:href="#cE" id="aj"/><path fill="#333" d="M903-674H283C219-549 140-441 54-366l-14-11c88-109 177-283 228-464l104 35c-4 12-16 21-39 19-11 29-24 56-36 84h491l50-61s55 40 91 74c-3 11-12 16-26 16zm-651 98h469l47-59s53 41 87 72c-3 11-12 16-26 16H260zm699 467L945 7c61 50-2 82-77 54C703-1 676-181 672-410H160l-9-29h511l39-42 78 65c-6 7-20 13-40 16-2 166 17 350 147 390 17 5 21 3 26-9 9-24 19-56 27-91" id="cF"/><use transform="matrix(0.021333333333333336,0,0,0.021333333333333336,0,0)" xlink:href="#cF" id="ak"/><path fill="#333" d="M105-659l18 1c25 106 7 188-18 224-17 24-52 37-67 18-13-17-5-40 11-56 28-33 57-114 56-187zm80-180l99 12c-3 14-11 24-37 28V54c0 11-34 28-62 24v-917zm79 153l12-6c149 90 88 203 36 153-1-47-25-109-48-147zm221 526h315v-93H485v93zm315-212H485v90h315v-90zM771 76c-6-54-27-60-86-71v-16c9-6 115 29 115-13v-106H485V53c0 8-34 26-63 23v-509l68 33h300l33-41 84 62c-7 7-23 16-42 20v344c0 51-10 82-94 91zm74-581l44-56s51 39 82 69c-3 11-12 16-25 16H336l-8-29h275v-89H406l-8-29h205v-82H363l-8-30h248v-100l97 10c-2 13-10 22-33 26v64h160l44-55s52 39 82 69c-2 11-11 16-25 16H667v82h134l43-55s48 39 79 68c-3 11-12 16-26 16H667v89h178" id="cG"/><use transform="matrix(0.021333333333333336,0,0,0.021333333333333336,0,0)" xlink:href="#cG" id="al"/><path fill="#333" d="M67-787l10-7c231 61 183 214 109 167-15-55-71-121-119-160zm46 752c0-138 25-197-66-201v-22c34-5 58 13 73-20 16-35 19-34 218-422l18 6c-50 120-150 347-166 393-11 29-19 60-18 84 3 38 67 228-30 231-17 0-29-18-29-49zm334-697v277h377v-277H447zm492 553l3 159c19 8 24 16 24 28 0 28-26 41-145 41h-73c-65 0-78-16-78-64v-410h-87C566-167 496-19 238 77l-7-15C450-50 505-194 516-425h-69c4 55 4 71-64 71v-439l75 31h363l32-38 74 56c-7 8-18 13-38 17v347c1 5-35 21-65 18v-63h-91v394c0 33 62 16 89 20 44-4 61 8 74-15 6-17 19-89 29-153h14" id="cH"/><use transform="matrix(0.021333333333333336,0,0,0.021333333333333336,0,0)" xlink:href="#cH" id="am"/><path fill="#333" d="M223-838l102 30c-4 13-16 22-39 21-23 74-51 146-83 214l43 16c-3 9-13 16-30 18V56c-2 6-36 25-62 21v-552c-33 57-67 109-105 152l-15-9c75-125 149-319 189-506zm133 188v557c-1 10-34 27-60 23v-616l93 10c-3 13-10 22-33 26zm-2 728l-6-18C553 10 724-62 862-224l86 51c-7 9-17 12-41 6C753-18 574 44 354 78zm61-151l-9-18c135-52 268-127 369-230l78 48c-8 9-17 12-38 7-111 88-253 152-400 193zm257-339l77 48c-7 9-16 11-35 7-82 57-191 103-296 132l-11-19c94-39 193-97 265-168zM541-689l-11 19c34 56 79 104 135 144 57-49 103-104 136-163H541zm308-69l70 65c-8 8-20 11-42 12-42 68-97 130-166 183 69 37 154 65 261 81l-3 11c-26 7-46 24-51 56-109-27-190-65-254-116-80 53-175 95-285 124l-8-16c97-35 185-81 258-138-46-43-81-94-112-152-38 59-81 110-127 148l-14-11c60-77 120-200 153-329l96 32c-4 12-16 21-37 19-10 25-21 48-32 71h249" id="cI"/><use transform="matrix(0.021333333333333336,0,0,0.021333333333333336,0,0)" xlink:href="#cI" id="an"/><path fill="#333" d="M431-219l5 14C367-163 251-90 119-16c-6 16-18 26-26 29L51-74c28-14 32-21 32-38v-397l77 40h174v-234H62l-9-29h271l37-40 78 62c-5 7-21 15-41 19v275c-2 8-39 25-64 22v-46H147v338c74-29 178-72 284-117zm358-350H572c-8 18-17 35-26 51 26 108 62 204 118 287 65-97 105-210 125-338zm179-16c-11 29-68 11-103 16-28 153-79 282-165 388C766-102 851-38 962 7l-3 10c-29 5-52 22-61 53C795 17 719-53 663-138 576-47 458 24 301 77l-8-14C443-2 553-85 632-187c-48-88-80-190-103-302-42 74-91 137-146 186l-15-10c94-125 176-320 216-528l108 28c-4 13-15 22-37 23-20 68-43 132-69 191h250l46-59s53 42 86 73" id="cJ"/><use transform="matrix(0.021333333333333336,0,0,0.021333333333333336,0,0)" xlink:href="#cJ" id="ao"/><path fill="#333" d="M288-224l89 48c-7 10-15 13-38 9C279-96 172-5 60 52L49 40c95-71 192-182 239-264zM159-533c104-30 211-128 278-190-118 10-243 18-359 21l-3-19c246-21 557-74 723-119l74 73c-10 9-30 9-54-3-94 15-211 30-334 42l57 34c-5 9-19 16-41 11-60 47-166 111-263 155 77-3 194-9 317-16 67-43 124-86 163-119l77 66c-6 7-23 12-44 4-116 80-345 198-545 275 128-4 339-17 568-31-41-38-89-73-130-96l9-11c311 80 291 259 209 219-13-30-38-61-67-91-73 9-161 19-262 30v285c0 51-13 85-103 94-7-57-34-57-101-69V-3s96 7 116 7c17 0 22-5 22-18v-277c-88 9-184 18-286 28-5 12-13 20-21 23l-43-84s24-2 37-7c108-42 242-112 355-184-78 14-179 29-289 43-5 11-12 18-18 21zm463 329l10-11C965-103 939 77 856 32c-36-79-149-180-234-236" id="cK"/><use transform="matrix(0.021333333333333336,0,0,0.021333333333333336,0,0)" xlink:href="#cK" id="ap"/><path fill="#333" d="M562-837l11-7c186 62 136 182 74 140-13-43-54-100-85-133zM84-200l-39-88s20-5 28-10c51-47 111-129 161-208-39 11-89 25-139 36-6 9-13 15-21 18l-35-89s19-4 25-9c58-60 129-205 156-282l93 44c-5 9-15 17-36 15-42 71-116 173-182 239 43 0 100-1 157-3 27-44 49-85 62-118l91 52c-5 9-17 16-37 12-56 88-159 213-254 300 68-8 170-20 273-35l2 16c-60 19-166 55-282 89-7 10-15 18-23 21zm309 36l4 13C330-114 236-64 111-9c-3 12-11 21-21 25L47-72c65-13 209-51 346-92zm554 24l3 121c20 8 25 16 25 29 0 27-26 40-133 39h-63c-61 0-73-16-73-61v-396c-39 6-80 13-124 20v80c-1 136-39 298-295 391l-10-15C473-32 514-179 514-306v-72c-27 3-53 7-81 10-5 11-12 18-19 22l-43-87s18-4 25-7c75-44 167-154 204-213H376l-8-30h473l47-58s52 41 85 72c-3 11-13 16-27 16H603l91 43c-4 9-18 17-40 14-47 49-130 116-205 163 91-3 231-10 376-19-27-45-64-90-96-122l11-9c250 116 201 278 129 226-6-23-17-48-31-74l-68 12c0 130 4 260 0 389-1 30 50 16 74 19 37-3 50 5 64-11 6-14 17-69 26-118h13" id="cL"/><use transform="matrix(0.021333333333333336,0,0,0.021333333333333336,0,0)" xlink:href="#cL" id="aq"/><path fill="#333" d="M801-511c65 0 148-28 161 22 0 25-25 38-123 38h-56c-57 0-66-15-66-58v-234H515v54c0 89-21 214-205 291l-10-14c130-81 152-184 152-277v-117l75 33h182l36-37 73 62c-7 7-20 13-38 15v206c0 12 2 16 21 16zM100-825l11-7c236 86 196 233 124 190-21-59-86-136-135-183zm293 615l8 12C363-160 288-86 204-11c-5 17-16 28-25 33l-44-81c31-16 36-22 36-40v-441H50l-8-29h130l32-34 66 54c-4 7-18 15-37 19v425c47-30 103-67 160-105zm380-156H447c37 96 95 171 170 229 69-65 122-142 156-229zm45-70l72 67c-8 9-19 12-44 13-43 97-103 181-185 250C748-52 854-16 976 5l-2 11c-31 5-54 26-64 59C790 43 690-2 612-69 520-3 404 47 260 79l-9-17c131-39 239-93 325-163-68-68-117-154-150-265h-60l-9-29h416" id="cM"/><use transform="matrix(0.021333333333333336,0,0,0.021333333333333336,0,0)" xlink:href="#cM" id="ar"/><path fill="#333" d="M288-74v84h441v-84H288zm441-322H288v82h441v-82zm0 216H288v76h441v-76zm0-29v-76H288v76h441zm-86-430h158v-117H643v117zM216-756v117h151v-117H216zm366 0H428v117h154v-117zM823 10l48-59s55 42 90 73c-3 11-12 16-26 16H51l-9-30h181v-468l76 32h129c4-22 8-47 12-74H67l-8-29h385c4-23 7-45 9-65l108 16c-3 13-16 22-37 24l-9 25h296l37-47c-15 8-29 10-47 9v-42H216c10 44-17 45-63 49v-256l70 31h568l36-38 79 60c-5 7-22 16-41 20-1 52 3 110-2 159 14 11 55 43 83 68-2 11-12 16-26 16H505c-10 26-21 51-31 74h244l35-45 87 65c-6 10-20 16-45 19V10h28" id="cN"/><path fill="#333" d="M164-302c0 180 39 311 169 500l-21 17C15-66 15-539 312-820l21 18C202-612 164-483 164-302" id="cO"/><g id="as"><use transform="matrix(0.021333333333333336,0,0,0.021333333333333336,0,0)" xlink:href="#cN"/><use transform="matrix(0.021333333333333336,0,0,0.021333333333333336,21.333333333333336,0)" xlink:href="#cO"/></g><path fill="#333" d="M423-834l11-8c187 45 133 170 69 127-10-39-49-91-80-119zM290-24h423v-134H290v134zm423-291H290v127h423v-127zm-9-29l37-40 79 61c-7 7-22 16-40 19V46c-2 9-40 29-67 25V5H290v49c0 8-36 25-65 22v-452l70 32h409zm104-133l50-62s56 43 92 76c-3 11-13 16-27 16H63l-9-30h517c31-59 65-138 84-199H112l-9-30h666l48-59s54 42 87 73c-2 11-12 16-26 16H664l94 32c-5 12-17 20-38 17-30 45-75 103-121 150h209zM278-666l12-6c184 98 120 232 58 178-4-56-40-127-70-172" id="cP"/><use transform="matrix(0.021333333333333336,0,0,0.021333333333333336,0,0)" xlink:href="#cP" id="at"/><path fill="#333" d="M64 89V42h367V-8H137v-44h294v-50H173v-250h600v250H495v50h308v44H495v50h381v47H65zm125-592v-244h567v244H189zM81-403v-47h778v47H81zm172-147h439v-53H253v53zm0-97h439v-53H253v53zm241 497h214v-58H494v58zm0-156v53h214v-53H494zM233-150h197v-58H233v58zm0-103h197v-53H233v53" id="cQ"/><use transform="matrix(0.021333333333333336,0,0,0.021333333333333336,0,0)" xlink:href="#cQ" id="au"/><path fill="#333" d="M247-696h-42c-44 59-96 108-149 141l-13-11c63-61 125-162 164-273l90 37c-3 11-15 19-37 16-11 22-23 42-36 62h170l41-53s46 38 75 66c-2 10-11 15-25 15H285c116 70 59 166 9 121 0-41-22-89-47-121zm11 509l11-8C494-126 446 28 375-21c-13-56-69-126-117-166zM590 79c-16-63-47-59-131-74v-15s131 8 156 8c20 0 26-5 26-21v-189H88l-9-29h562v-104l99 11c-3 14-12 21-34 24v69h102l45-55s51 39 82 68c-2 11-12 16-26 16H706v193c0 55-11 88-116 98zm239-459l45-56s52 39 83 68c-3 11-12 16-25 16H52l-8-28h423v-110H154l-9-30h322v-69l-14 11-14-11c49-58 102-153 134-251l94 37c-5 11-18 19-39 16-11 22-24 43-38 63h230l46-57s51 40 84 70c-3 10-13 15-27 15H691c123 65 70 167 15 124-4-43-32-91-63-124h-73c-23 31-48 59-74 83l64 7c-2 12-9 19-28 22v64h223l43-51s49 36 80 65c-3 11-12 16-26 16H532v110h297" id="cR"/><path fill="#333" d="M197-302c0-181-39-311-169-500l21-18C346-539 346-66 49 215l-21-17C159 8 197-122 197-302" id="cS"/><g id="av"><use transform="matrix(0.021333333333333336,0,0,0.021333333333333336,0,0)" xlink:href="#cR"/><use transform="matrix(0.021333333333333336,0,0,0.021333333333333336,21.333333333333336,0)" xlink:href="#cS"/></g><path fill="#333" d="M92-824l11-7c221 90 175 229 107 184-18-57-76-132-118-177zm241 597l10 12c-29 36-86 107-150 180-5 20-18 33-27 38l-44-81c31-15 36-22 36-40v-422H39l-9-29h129l32-35 66 55c-4 7-17 15-37 20v392c35-27 75-58 113-90zm381-223l39-50s44 36 70 64c-3 11-12 16-25 16H464l-7-30h141v-116H481l-8-30h125v-115l92 10c-3 14-12 23-35 27v78h49l35-47s41 34 66 61c-2 11-11 16-25 16H655v116h59zm-4 135H549v157h161v-157zm0 186H549c8 45-10 51-58 54v-298l62 28h148l32-35 73 55c-6 7-22 15-39 19v201c-2 7-35 23-57 20v-44zm94 206c-7-56-34-59-98-70V-9c12-7 134 30 134-14v-714H437v313c0 181-18 374-191 502l-15-12c200-205 132-513 145-864l74 32h380l32-41 81 63c-6 7-22 16-43 19v708c0 53-9 84-96 94" id="cT"/><use transform="matrix(0.021333333333333336,0,0,0.021333333333333336,0,0)" xlink:href="#cT" id="aw"/><path fill="#333" d="M149-632v90h102v-90H149zm268 0H312v90h105v-90zM251-293v-148c-55 60-126 110-208 148l-11-16c84-54 154-126 198-204h-81c7 27-24 30-57 33v-210l62 29h97v-63H57l-8-29h202v-90l97 11c-2 14-12 22-36 26v53h100l43-53s47 37 78 66c-3 11-13 16-27 16H312v63h97l31-33 67 52c-5 6-18 14-32 16v120c-2 8-35 24-58 21v-28H312v31c220 24 198 155 130 125-24-38-82-84-130-109v152c-1 10-35 24-61 21zM822 23l47-58s53 41 85 71c-2 11-11 16-25 16H54l-8-29h200v-194l97 10c-2 13-11 22-33 26V23h158v-255H122l-9-29h644l44-56s52 39 83 69c-3 11-12 16-25 16H533v103h174l46-57s51 41 84 70c-3 11-13 16-27 16H533V23h289zM638-669l-11 17c24 55 55 105 95 148 37-49 63-104 79-165H638zm331-16c-9 28-62 11-95 16-24 80-61 146-113 201 55 47 124 84 212 108l-3 11c-24 6-43 22-49 53-85-35-148-81-197-137-65 56-149 98-254 131l-7-15c99-41 175-92 231-153-34-48-60-101-81-160-29 41-61 76-95 104l-14-11c54-71 104-183 130-301l98 31c-5 11-16 19-36 19-12 31-26 62-42 90h189l45-57s50 41 81 70" id="cU"/><use transform="matrix(0.021333333333333336,0,0,0.021333333333333336,0,0)" xlink:href="#cU" id="ax"/><use transform="matrix(0.021333333333333336,0,0,0.021333333333333336,0,0)" xlink:href="#cw" id="ay"/><path fill="#333" d="M422-842l10-8c190 29 132 162 65 116-8-37-43-84-75-108zm-53 168l73 56c-7 10-21 14-48 11-72 38-200 96-303 128l-9-15c88-41 233-137 287-180zm284 297l67 58c-8 8-19 11-42 12-26 47-58 91-100 129 114 72 83 143 35 118-15-23-42-52-78-81-64 48-141 87-235 113l-9-15c81-32 152-75 208-125-33-24-72-46-116-67l7-16c60 15 107 32 144 49 31-34 58-71 77-110H408c-40 50-88 99-137 131l-13-12c62-57 123-158 154-239l88 24c-4 10-12 14-36 12-9 18-21 35-34 54h185zM225-14h553v-421H225v421zm549-451l33-40 76 58c-8 7-19 14-41 17V51c1 5-34 23-64 20V16H225c5 51 0 63-62 64v-576l74 31h175c15-38 34-99 46-140l103 26c-4 12-16 20-38 19-20 29-49 66-72 95h323zM585-643l8-14c336 42 351 190 271 173-55-54-187-125-279-159zm301-119l76 74c-6 7-18 9-37 10-22 25-61 62-92 82l-13-7c9-23 20-58 28-87H176c-1 54-24 92-50 108-24 15-58 16-68-6-8-20 5-39 25-51 37-20 68-75 62-134l17-1c6 20 11 37 13 54h670" id="cV"/><use transform="matrix(0.021333333333333336,0,0,0.021333333333333336,0,0)" xlink:href="#cV" id="az"/><path fill="#333" d="M225-112h553v-545H225v545zm582-623l92 73c-9 10-28 20-53 25V5c-3 7-41 24-68 21V-82H225v97c1 11-35 30-67 26v-762l74 35h534" id="cW"/><use transform="matrix(0.021333333333333336,0,0,0.021333333333333336,0,0)" xlink:href="#cW" id="aA"/><path fill="#333" d="M932-514H533c36 189 142 391 439 527l-2 11c-35 4-59 17-69 55C623-74 543-313 514-513 486-280 394-73 51 78L40 60C332-96 418-291 444-514H59l-9-29h397c8-93 8-191 8-293l107 11c-3 15-11 25-34 29-2 86-3 171-11 253h288l55-69s61 48 98 82c-2 11-11 16-26 16" id="cX"/><use transform="matrix(0.021333333333333336,0,0,0.021333333333333336,0,0)" xlink:href="#cX" id="aB"/><path fill="#333" d="M687-580c337 265 282 517 190 437-13-138-118-315-205-430zm-444-15l109 35c-3 12-12 18-39 17C268-408 183-217 53-90l-12-10c100-140 171-349 202-495zM421 77C405 9 373 13 285-5v-17s135 10 160 10c23 0 30-6 30-24v-792l106 12c-3 15-12 24-37 27v760c0 57-13 95-123 106" id="cY"/><g id="aC"><use transform="matrix(0.021333333333333336,0,0,0.021333333333333336,0,0)" xlink:href="#cY"/><use transform="matrix(0.021333333333333336,0,0,0.021333333333333336,21.333333333333336,0)" xlink:href="#cb"/></g><path fill="#333" d="M740 1c-10-58-33-62-105-73v-17s100 8 121 8c19 0 24-6 24-21v-312H576V55c-1 10-37 27-64 23v-492H319v397c1 7-31 27-63 23v-412c-58 69-128 131-210 181l-11-11c132-104 232-251 298-400H61l-9-30h294c25-60 45-120 59-177l107 33c-5 13-14 18-41 18-14 41-31 83-51 126h392l51-63s57 44 92 77c-2 11-12 16-26 16H406c-30 60-66 121-109 178l34 14h181v-149l97 11c-2 13-10 22-33 26v112h194l32-40 84 62c-7 8-22 16-42 20v309c0 51-11 84-104 94" id="cZ"/><use transform="matrix(0.021333333333333336,0,0,0.021333333333333336,0,0)" xlink:href="#cZ" id="aD"/><path fill="#333" d="M381-120h219v-158H381v158zm283-151v203c-3 8-40 25-64 22v-44H381v60c0 8-34 24-62 21v-328l67 31h206l32-35 72 54c-5 6-17 13-32 16zm82-469H240v147h506v-147zM728 78c2-64-50-60-111-74l1-17s137 26 169-1c28-24 37-175 43-398H239C232-246 200-57 56 78L41 68c169-245 125-520 132-870l79 33h484l37-40 81 62c-7 8-23 16-43 20v197c-2 7-40 23-65 20v-53H240c0 41 1 82-1 122h581l38-41 75 63c-7 8-19 13-39 15-6 251-22 402-61 444-25 26-62 38-105 38" id="da"/><use transform="matrix(0.021333333333333336,0,0,0.021333333333333336,0,0)" xlink:href="#da" id="aE"/><use transform="matrix(0.021333333333333336,0,0,0.021333333333333336,0,0)" xlink:href="#cx" id="aF"/><path fill="#333" d="M222-287h229L336-633zM620-46l90 10V0H421v-36l110-11-66-199H208L143-49l105 13V0H8v-36l90-12 231-688h56" id="db"/><path fill="#333" d="M209-413v316C332 19 500-29 499-253c-4-227-148-290-290-160zm-11-104l6 72c145-167 375-71 375 184 0 169-93 275-221 275-50 0-104-16-153-75 0 94 0 183 3 278l103 13v32H40v-32l91-13c2-211 6-445-2-652l-90-7v-32l145-53" id="dc"/><path fill="#333" d="M203-45l90 13V0H30v-32l93-13c4-224 1-454 2-681l-91-8v-31l155-42 15 9c-5 246-4 504-1 753" id="dd"/><path fill="#333" d="M133-301h234c44 0 54-22 54-54 0-70-53-133-130-133-73 0-146 60-158 187zm356 39l-357-1c1 148 79 221 185 221 71 0 118-31 157-78l21 16C454-32 385 14 292 14 152 14 51-83 51-254c0-167 113-274 245-274 136-4 227 116 193 266" id="de"/><path fill="#333" d="M468-124l21 10C455-34 389 14 291 14 145 14 49-91 49-257c0-170 119-271 249-271 92 0 169 54 188 133-4 25-20 37-44 37-61-1-53-75-73-118-141-45-239 44-241 212 0 140 76 222 184 222 63 0 120-29 156-82" id="df"/><path fill="#333" d="M197-517l10 131c36-88 100-142 163-142 32 0 65 14 76 36 8 80-83 83-120 39l-14-12c-47 31-79 77-104 146 0 91 0 180 2 274l92 13V0H47v-32l82-12c4-127 5-274-1-391l-89-7v-32l144-53" id="dg"/><path fill="#333" d="M326-61l20 25c-28 32-69 50-120 50-76 0-118-41-118-126 2-112 1-241 1-356H11v-37l102-12 24-148h55l-6 151h150v46H185v352c-3 101 84 100 141 55" id="dh"/><g id="aG"><use transform="matrix(0.021333333333333336,0,0,0.021333333333333336,0,0)" xlink:href="#cy"/><use transform="matrix(0.021333333333333336,0,0,0.021333333333333336,21.333333333333336,0)" xlink:href="#db"/><use transform="matrix(0.021333333333333336,0,0,0.021333333333333336,36.672000000000004,0)" xlink:href="#dc"/><use transform="matrix(0.021333333333333336,0,0,0.021333333333333336,50.11200000000001,0)" xlink:href="#dc"/><use transform="matrix(0.021333333333333336,0,0,0.021333333333333336,63.55200000000001,0)" xlink:href="#dd"/><use transform="matrix(0.021333333333333336,0,0,0.021333333333333336,70.46400000000001,0)" xlink:href="#de"/><use transform="matrix(0.021333333333333336,0,0,0.021333333333333336,82.17600000000002,0)" xlink:href="#bW"/><use transform="matrix(0.021333333333333336,0,0,0.021333333333333336,94.05866666666668,0)" xlink:href="#df"/><use transform="matrix(0.021333333333333336,0,0,0.021333333333333336,105.34400000000001,0)" xlink:href="#dg"/><use transform="matrix(0.021333333333333336,0,0,0.021333333333333336,115.02933333333335,0)" xlink:href="#cd"/><use transform="matrix(0.021333333333333336,0,0,0.021333333333333336,121.96266666666668,0)" xlink:href="#dc"/><use transform="matrix(0.021333333333333336,0,0,0.021333333333333336,135.4026666666667,0)" xlink:href="#dh"/></g><path fill="#333" d="M927-358H547c93 139 262 257 418 310l-2 9c-27 4-51 24-60 56-150-70-290-199-372-362V51c0 12-37 31-67 27v-381C366-166 219-49 46 30L35 14c160-93 300-233 382-372H55l-8-29h417v-263H104l-9-29h369v-160l102 12c-2 14-10 24-35 28v120h237l50-61s56 42 91 74c-2 11-12 16-26 16H531v263h276l52-64s58 44 94 77c-2 11-12 16-26 16zM208-624l11-6c207 108 142 260 75 201-4-64-48-144-86-195zm413 217l-14-10c34-51 78-134 109-212l97 43c-5 10-18 18-37 15-46 62-104 124-155 164" id="di"/><use transform="matrix(0.021333333333333336,0,0,0.021333333333333336,0,0)" xlink:href="#di" id="aH"/><path fill="#333" d="M164 77c-6-52-23-61-82-70V-9c10-7 109 27 109-12v-293c-28 16-56 32-88 49-2 10-10 21-20 25l-39-80c29-8 83-28 147-52v-206H52l-8-30h147v-230l99 11c-3 14-13 24-37 27v192h38l41-56s46 40 74 69l-1-3h145c3-75 4-153 5-232l105 12c-3 14-12 24-36 27-2 65-3 130-7 193h127l39-41 78 67c-6 7-21 14-42 17-8 186 0 461 75 528 9 9 14 7 18-5 10-32 20-65 29-100l12 2L941 7c57 74-24 87-75 39-102-95-114-360-112-614H616c-5 78-14 153-28 225 169 103 143 217 76 182-17-39-50-82-90-121C532-132 456-5 308 79l-13-17c130-92 194-229 226-392-35-29-73-56-106-77l10-11c39 13 74 27 104 42 10-61 16-126 20-192H414l-8-26c-3 11-13 16-26 16H253v181c45-17 95-36 143-56l5 15c-40 23-89 53-148 88v334c0 54-9 85-89 93" id="dj"/><use transform="matrix(0.021333333333333336,0,0,0.021333333333333336,0,0)" xlink:href="#dj" id="aI"/><path fill="#333" d="M528 28c53 11 144 33 144-28v-400H375v-56h506v56H737V11c8 111-97 92-192 86zM353-528c-25 58-58 114-94 164v481h-64l6-406c-33 39-67 72-108 100l-33-58c103-72 183-192 239-311zm-295-5c92-61 175-144 225-244l53 33C272-641 194-547 94-480zm395-125v-56h386v56H453" id="dk"/><use transform="matrix(0.021333333333333336,0,0,0.021333333333333336,0,0)" xlink:href="#dk" id="aJ"/><path fill="#333" d="M268-22h475v-191H268v191zm475-408H268v187h475v-187zm0-211H268v182h475v-182zm28-73l83 66c-7 8-24 16-44 20V48c-3 9-39 30-67 26V7H268c8 53-8 68-66 69v-781l73 34h145c17-51 32-118 39-167l114 20c-3 13-14 22-35 23-20 37-53 84-87 124h282" id="dl"/><use transform="matrix(0.021333333333333336,0,0,0.021333333333333336,0,0)" xlink:href="#dl" id="aK"/><path fill="#333" d="M692-3c-8-52-34-51-96-63v-15s88 6 109 6c16 0 21-5 21-19v-197H532V54c-1 10-37 26-64 23v-368H266v261c0 7-36 24-64 21v-343l69 31h197v-112l96 11c-2 13-9 22-32 26v75h184l34-41 85 63c-6 9-23 18-44 22v190c0 47-11 76-99 84zm141-489l43-44 78 76c-7 7-19 9-38 10-22 28-61 69-91 94l-13-7c8-26 19-68 26-100H171c-1 50-19 88-52 105-56 32-97-31-35-68 24-15 58-61 59-130h15c6 23 10 44 12 64h663zm7-200l44-57s52 41 82 71c-2 11-11 16-25 16H762v113c0 9-37 23-64 20v-133H528v120c0 9-36 24-63 21v-141H301v122c0 9-37 24-64 21v-143H49l-9-30h197v-144l101 10c-2 15-12 24-37 28v106h164v-146l100 11c-2 14-11 24-37 29v106h170v-144l101 11c-2 14-11 25-37 29v104h78" id="dm"/><use transform="matrix(0.021333333333333336,0,0,0.021333333333333336,0,0)" xlink:href="#dm" id="aL"/><path fill="#333" d="M147-328h104v-203H147v203zm104-423H147v191h104v-191zM222 78c-8-53-25-60-85-71V-9c11-7 114 30 114-13v-277H146c-4 131-21 271-93 377l-17-8C91-72 87-258 87-428v-384l72 31h82l32-39 78 60c-6 8-21 16-41 20v726c0 52-8 83-88 92zm350-499l36-47s41 34 66 61c-3 11-12 16-25 16H478l75 33c-4 9-16 18-36 16-29 74-81 179-129 252 52-6 127-16 204-28-13-60-36-120-57-165l15-6C710-110 656 39 603-18c1-25-2-52-7-79-51 17-129 46-209 70-6 8-12 14-19 17l-32-80s16-4 22-9c40-65 84-209 100-292H344l-8-30h132v-199H358l-8-29h118v-184l91 10c-2 13-11 22-32 26v148h32l35-44s38 32 62 57c-2 11-11 16-25 16H527v199h45zM840-93c-6-49-21-61-76-68v-17c10-6 109 26 101-13v-534H743V55c1 11-29 27-58 24v-865l62 32h108l31-38 78 59c-6 8-22 15-41 19v531c0 51-9 82-83 90" id="dn"/><use transform="matrix(0.021333333333333336,0,0,0.021333333333333336,0,0)" xlink:href="#dn" id="aM"/><path fill="#333" d="M906-588H553c90 183 252 348 406 425l-3 10c-29 3-54 24-66 55-149-99-281-273-358-488v413h91l48-62s54 44 86 76c-3 11-12 16-25 16H532V53c0 11-37 28-66 24v-220H256l-8-30h218v-349C378-338 235-175 46-63L34-76c172-129 308-322 380-512H80l-9-29h395v-223l104 12c-3 14-11 25-38 29v182h256l51-66s59 45 94 79c-3 11-13 16-27 16" id="do"/><use transform="matrix(0.021333333333333336,0,0,0.021333333333333336,0,0)" xlink:href="#do" id="aN"/><g id="aO"><use transform="matrix(0.021333333333333336,0,0,0.021333333333333336,0,0)" xlink:href="#cl"/><use transform="matrix(0.021333333333333336,0,0,0.021333333333333336,21.333333333333336,0)" xlink:href="#cl"/></g></defs></g></svg>